<svg id="Layer_1" data-name="Layer 1" xmlns="http://www.w3.org/2000/svg" viewBox="0 0 95.31 39.23"><defs><style>.cls-1{fill:#fff;}.cls-2{fill:#1d1d1b;}.cls-3{fill:#ab997d;}</style></defs><path class="cls-1" d="M3,26.33c-.2,3.6-.29,7.19-.27,10.79A1.22,1.22,0,0,0,4,38.33c9.64-.34,19.37.39,29-.26a1.21,1.21,0,0,0,0-2.41l-.47,0c-1.55-.08-1.54,2.33,0,2.41l.47,0V35.66c-9.61.65-19.34-.08-29,.26l1.21,1.2c0-3.6.07-7.19.27-10.79.09-1.54-2.32-1.54-2.41,0Z" transform="translate(-2.35 -0.21)"/><path class="cls-1" d="M34.48,38c1.74-.79,3.82-1.23,4.92-2.84.5-.73.51-1.51,1.11-2.15,1.64-1.78,5-2.55,6.94-.74l.61-2.3c-1.71.36-3.56-.06-5.17.73-.35.18-2.26,1.5-1.57,1.89a1.39,1.39,0,0,0-2,.83l-.14.55a1.38,1.38,0,0,0,1,1.69l4.83.65V33.57l-2.66.21a1.38,1.38,0,0,0,0,2.75c3.3.25,10.41,1.36,13.15-1.3a2.3,2.3,0,0,0,.87-1.61c0-.55-.74-2.41-1-1a1.42,1.42,0,0,0-.63-1.55c-4-2.47-5.8-2.49-8.93,1.16a1.4,1.4,0,0,0,1,2.35,18,18,0,0,0,5-.14,1.38,1.38,0,0,0,1-1.69c-.77-2.11-.57-7.46-1.25-2.44-.24,1.74,2.41,2.49,2.65.74.34-2.49,1-7.36-3.3-6.09-3.25,1-1.58,6.25-.76,8.52l1-1.69a11.46,11.46,0,0,1-4.29,0l1,2.35a10,10,0,0,1,2.43-1.94,4.25,4.25,0,0,0,.51-.6,21.74,21.74,0,0,0,2.65,1.81l-.63-1.56A5.18,5.18,0,0,0,53.49,34c.23-.6-5,0-5.3,0a48.52,48.52,0,0,1-5.9-.25v2.75L45,36.32a1.38,1.38,0,0,0,0-2.75c-1.37-.18-2.73-.36-4.09-.56l1,1.7.13-.55-2,.82c1.1.64,1.53.47,2.68,0s1.93-1.72,3.22-2c1-.2,2-.09,3-.3a1.39,1.39,0,0,0,.61-2.31c-2.38-2.22-5.28-2.25-8.16-.94-1.11.5-2.86,1.25-3.57,2.35-.37.58-.06,1.46-.43,2-.54.82-3.32,1.51-4.15,1.88-1.61.73-.22,3.11,1.39,2.38Z" transform="translate(-2.35 -0.21)"/><path class="cls-1" d="M7.34,28.68l15.81-.63,7.9-.32c2.73-.11,5.92-.94,4.92,2.66-1.44,5.21-10,3.68-14.1,3.55a154.51,154.51,0,0,0-15.52-.08l1.38,1.37-.27-7.37L6.08,29.23c6.25-.25,12.51-.58,18.76-.73,1.36,0,7.22-.94,8.2.09,3.8,4-8.61,3.86-9.91,3.83-2.85-.08-5.71-.2-8.56-.31s-6.44-.86-1-1c3.18-.07,6.37-.11,9.55-.13.92,0,9.76-.58,10-.23l.49-1.89c-3.52,1.83-9.09,1.11-12.92,1.19L9,30.32a1.38,1.38,0,0,0,0,2.76l15.2-.33c3.61-.08,7.46.21,10.74-1.49a1.38,1.38,0,0,0,.5-1.88c-1.92-2.66-8.61-1.15-11.43-1.14-3.19,0-6.37.06-9.56.12-1.78,0-5.08-.62-6.69.33s-2.2,3.78-.72,5.2c2.33,2.23,9.7,1.06,12.62,1.16,4.83.17,10.87,1,15.41-1.2,2.45-1.18,4-4.13,1.85-6.62s-7.59-1.55-10.26-1.52c-6.87.08-13.74.49-20.61.77A1.4,1.4,0,0,0,4.7,27.86L5,35.23a1.39,1.39,0,0,0,1.37,1.38,154.51,154.51,0,0,1,15.52.08c3.67.12,8.22.82,11.74-.39,4.77-1.64,6.84-5.56,5.47-10.38a1.35,1.35,0,0,0-1-1c-4.28-.94-9.63.12-14,.29l-16.8.68c-1.76.07-1.77,2.82,0,2.75Z" transform="translate(-2.35 -0.21)"/><path class="cls-1" d="M55.85,30.64l-1,.47a.18.18,0,0,0,0,.32A1.27,1.27,0,0,0,56.1,31a.18.18,0,0,0-.25-.25,2.22,2.22,0,0,0-.73,1.12.17.17,0,0,0,.12.21,2.65,2.65,0,0,1,.78.41c.15.11.36-.15.21-.27a2.89,2.89,0,0,1-.68-.8.17.17,0,0,0-.31.14L55.67,33l.29-.16a3.09,3.09,0,0,1-.56-1.08.17.17,0,0,0-.34.05l.17,2.09c0,.33,0,.67.09,1a.33.33,0,0,0,.1.23l.1,0,0,0c.07,0,.08,0,0,0l.08-.19a11.58,11.58,0,0,1-1.06.65c-.32.16-.68,0-1,.21s0,.42.18.29.36-.06.56-.08a1.14,1.14,0,0,0,.41-.12c.37-.19.71-.44,1.06-.65a.18.18,0,0,0,.08-.2.21.21,0,0,0-.12-.16c-.11-.06-.13,0-.15-.18s-.06-.65-.08-1l-.16-1.94-.34,0a3.39,3.39,0,0,0,.65,1.23c.11.14.33,0,.29-.17l-.44-1.45-.32.14a3.22,3.22,0,0,0,.74.86l.2-.27a2.8,2.8,0,0,0-.86-.44l.12.21a1.82,1.82,0,0,1,.65-1l-.25-.25a.91.91,0,0,1-.9.36l0,.32,1-.48c.2-.09,0-.39-.17-.29Z" transform="translate(-2.35 -0.21)"/><path class="cls-2" d="M2.69,21.09c2.9-4.65,6.65-8.68,9.87-13.1.13-.18-.16-.35-.29-.17-3.22,4.42-7,8.45-9.87,13.1a.17.17,0,0,0,.29.17Z" transform="translate(-2.35 -0.21)"/><path class="cls-2" d="M12.42,8.07c10.38.35,20.77.28,31.15.25a.17.17,0,0,0,0-.34c-10.38,0-20.77.1-31.15-.25a.17.17,0,0,0,0,.34Z" transform="translate(-2.35 -0.21)"/><path class="cls-3" d="M11.28,7.66l.13,1.52L12.56,9l-.28-1.37-1.07.45a8.81,8.81,0,0,1,.54,1.06,2.59,2.59,0,0,0,.47.92l-.1-.71v0l.5-.29h0l.56.74h0c.17-.74-1-1-1.13-.31h0a.59.59,0,0,0,.56.74h0a.58.58,0,0,0,.51-.29v0A.6.6,0,0,0,13,9.26c-.06-.07-.07-.06,0,0,0-.09-.07-.19-.11-.28s-.13-.32-.2-.48a8.54,8.54,0,0,0-.51-1A.59.59,0,0,0,11.15,8l.28,1.37c.14.63,1.21.5,1.15-.16l-.14-1.52c-.06-.75-1.23-.75-1.16,0Z" transform="translate(-2.35 -0.21)"/><path class="cls-3" d="M34.35,8.21c1,.21,2.1,0,3.14.21s2,.72,3.07.94a.58.58,0,0,0,.31-1.12A11.59,11.59,0,0,0,38,7.53c-.65-.08-.79,1-.15,1.15.83.18,1.65.39,2.47.64s1-.91.31-1.13S39,7.73,38.19,7.56L38,8.7a10.48,10.48,0,0,1,2.53.66l.31-1.12C39.86,8,39,7.52,38,7.3s-2.2,0-3.29-.22c-.74-.15-1,1-.31,1.13Z" transform="translate(-2.35 -0.21)"/><path class="cls-3" d="M42.76,7.63a4.88,4.88,0,0,0-1.06-.42.59.59,0,0,0-.72.41.6.6,0,0,0,.41.72,3.16,3.16,0,0,1,.78.3.6.6,0,0,0,.8-.21.59.59,0,0,0-.21-.8Z" transform="translate(-2.35 -0.21)"/><path class="cls-3" d="M39.47,2.67c-.27.21-.68.11-1,.33a1,1,0,0,0-.34,1.19A1,1,0,0,0,40,4.31l-.85.34C39,4.3,39,4.2,39,4.37v.15a1,1,0,0,0,0,.24.78.78,0,0,0,1.14.44A1.51,1.51,0,0,0,40.42,5a.69.69,0,0,1,.11-.13q.11-.1-.09,0a.78.78,0,0,0,.9-.63,1,1,0,0,0-.66-1.09l.12.92a2.73,2.73,0,0,0,.39-.44l-1.06-.14a1.11,1.11,0,0,0,.55.67c.48.25,1.16-.28.8-.8l-.7-1c-.26-.37-1-.39-1.07.14a.74.74,0,0,1-.19.42c-.5.56.31,1.38.83.83l.32-.34c.51-.55-.31-1.38-.83-.83L39.52,3l.83.83a1.9,1.9,0,0,0,.49-.94L39.77,3l.7,1,.8-.79,0,0a.6.6,0,0,0-1.07-.14A1.39,1.39,0,0,1,40,3.3a.58.58,0,0,0,.12.91l.13.07c.2.1.31-.07.32-.52a.49.49,0,0,0-.21,0,.91.91,0,0,0-.63.31l-.07.09c-.18.17,0,.26.53.27a.71.71,0,0,0,0-.25.7.7,0,0,0-.37-.52.59.59,0,0,0-.86.34l.37-.14c-.1.08-.12.1-.05.08a1.65,1.65,0,0,0,.3,0,1.16,1.16,0,0,0,.53-.21.61.61,0,0,0,.21-.8.59.59,0,0,0-.8-.21Z" transform="translate(-2.35 -0.21)"/><path class="cls-3" d="M26.63,1.76c-1.08-.23-3.23-.64-3.24,1.05a.6.6,0,0,0,.59.58,10.32,10.32,0,0,0,1.24.08c.59,0,.67,0,1,.5s.24.77.69,1A1,1,0,0,0,28,4.79c.38-.27,0-.48.78-.66.24,0,.53.08.78,0a.84.84,0,0,0,.17-1.61,2.77,2.77,0,0,0-1.61.05c-.15,0-1.07.14-1.15.31-.44.89.88.83,1.24.83a.59.59,0,0,0,.3-1.09,10.5,10.5,0,0,0-1.27-.81l-.45,1.07A9.32,9.32,0,0,1,28,3.3c.7.28,1-.85.31-1.13a8.9,8.9,0,0,0-1.27-.39c-.62-.14-1,.74-.45,1.07a10.5,10.5,0,0,1,1.27.81l.29-1.09c-.56,0-2.8-.53-2.27,1a.93.93,0,0,0,.95.57,3.34,3.34,0,0,0,.77-.19,6.35,6.35,0,0,1,.78-.19c.49.13.71,0,.63-.33L29.46,3c-.66.13-1.28-.17-1.87.29-.14.12-.28.46-.4.53s0,.09.11-.15a3.16,3.16,0,0,0-.13-.53c-.52-1.29-2.1-.78-3.19-.91l.58.59c0-.28,1.64,0,1.76.08.73.15,1.05-1,.31-1.13Z" transform="translate(-2.35 -0.21)"/><path class="cls-3" d="M14.73,3.52a7.59,7.59,0,0,1,1.66.29c.42.17.7.61,1.13.81a2.49,2.49,0,0,0,2.27-.06,1.47,1.47,0,0,0,.44-1.83,1.18,1.18,0,0,0-.76-.6c-.33-.1-.74,0-1,0l.41.41c-.08-.28.29-.72.18-1.1a.86.86,0,0,0-.59-.61,1.07,1.07,0,0,0-.8.19,17.44,17.44,0,0,1-1.86,1L16.24,3a18.84,18.84,0,0,1,2-1.31c.66-.38.08-1.34-.59-1a13,13,0,0,0-2.51,1.66.58.58,0,0,0,.42,1c.25,0,.68-.21.89-.18s.41.48.7.72a1.5,1.5,0,0,0,.69.34c.31.07.84-.15,1.1,0,.67.29,1.27-.65.59-1l-1.92-1a.59.59,0,0,0-.71.92,5.92,5.92,0,0,0,1.1,1c.62.42,1.2-.59.59-1a4.27,4.27,0,0,1-.86-.78L17,3.18l1.92,1,.59-1A1.87,1.87,0,0,0,18.64,3c-.3,0-.59.1-.86-.14s-.18-.42-.32-.57c-.6-.62-1.21-.14-1.92-.12l.41,1a11.6,11.6,0,0,1,2.27-1.47l-.59-1a18.84,18.84,0,0,0-2,1.31c-.47.36-.23,1.34.45,1.07a12,12,0,0,0,1.31-.6A2.58,2.58,0,0,0,18,2.16L18.24,2c-.24-.21-.39-.23-.44,0-.48.4,0,1.22.49,1.33.31.07,1.07-.25.73.21s-1.13,0-1.52-.29a4.72,4.72,0,0,0-2.45-.79c-.74-.12-1.06,1-.32,1.13Z" transform="translate(-2.35 -0.21)"/><path class="cls-2" d="M2.55,21,33,21.42c.21,0,.21-.33,0-.33L2.55,20.62a.17.17,0,0,0,0,.34Z" transform="translate(-2.35 -0.21)"/><path class="cls-2" d="M2.41,21.11l.57.71a.18.18,0,0,0,.14.06.2.2,0,0,0,.14-.06.17.17,0,0,0,.05-.14.21.21,0,0,0-.05-.13l-.57-.71a.2.2,0,0,0-.14-.06.18.18,0,0,0-.14.06.2.2,0,0,0-.06.13.3.3,0,0,0,.06.14Z" transform="translate(-2.35 -0.21)"/><path class="cls-2" d="M3.32,21.93l30.37.65a.17.17,0,0,0,0-.33L3.32,21.6c-.21,0-.21.33,0,.33Z" transform="translate(-2.35 -0.21)"/><path class="cls-2" d="M32.93,21.52a1.51,1.51,0,0,1,.28.15l.12.08,0,0h0s0,0,0,0l0,0,.22.21.11.12,0,0s0,0,0,0l.06.07a.16.16,0,0,0,.22.06.17.17,0,0,0,.06-.23,2.63,2.63,0,0,0-1-.87.18.18,0,0,0-.23.06.16.16,0,0,0,.06.23Z" transform="translate(-2.35 -0.21)"/><path class="cls-2" d="M33.27,21.37q5-6.63,10.55-12.87c.15-.16-.09-.4-.23-.24Q38.05,14.54,33,21.2c-.13.17.16.34.29.17Z" transform="translate(-2.35 -0.21)"/><path class="cls-2" d="M33.66,22.9Q38.72,16.28,44.22,10c.14-.16-.09-.39-.24-.23q-5.53,6.27-10.6,12.94c-.13.17.16.33.28.16Z" transform="translate(-2.35 -0.21)"/><path class="cls-2" d="M43.69,8.63a4.58,4.58,0,0,0,.06,1.43.18.18,0,0,0,.21.12.19.19,0,0,0,.12-.21A4.31,4.31,0,0,1,44,8.63a.17.17,0,0,0-.16-.17.18.18,0,0,0-.17.17Z" transform="translate(-2.35 -0.21)"/><path class="cls-2" d="M3,22.47a138.13,138.13,0,0,0-.45,16c0,.25.4.25.39,0a138.13,138.13,0,0,1,.45-16c0-.25-.37-.25-.39,0Z" transform="translate(-2.35 -0.21)"/><path class="cls-2" d="M2.6,38.54c10.32-.22,20.65-.33,31,.05.21,0,.21-.33,0-.34-10.33-.38-20.66-.26-31,0a.17.17,0,0,0,0,.34Z" transform="translate(-2.35 -0.21)"/><path class="cls-2" d="M33.53,23.17q-.45,7.56-.24,15.13c0,.22.34.22.33,0q-.19-7.56.24-15.13c0-.21-.32-.21-.33,0Z" transform="translate(-2.35 -0.21)"/><path class="cls-2" d="M33.66,38.57q2.7-1.29,5.46-2.41c.2-.08.12-.4-.08-.32q-2.8,1.14-5.55,2.44c-.19.09,0,.38.17.29Z" transform="translate(-2.35 -0.21)"/><path class="cls-2" d="M54,32.13a29.75,29.75,0,0,1-4.75,1.67l.22.16.44-7a15.54,15.54,0,0,0-.12-4c-.44-2.32-1.87-4.27-4.46-3.86a6.19,6.19,0,0,0-4.06,2.27C39.11,24.14,39.07,27.73,39,31a.17.17,0,0,0,.34,0c.07-3.93.26-9.9,4.85-11.25,1.35-.4,2.8-.65,3.92.41a5.31,5.31,0,0,1,1.35,2.9,14.79,14.79,0,0,1,.13,3.64L49.12,34a.17.17,0,0,0,.21.16,30.41,30.41,0,0,0,4.83-1.7c.19-.09,0-.37-.17-.29Z" transform="translate(-2.35 -0.21)"/><path class="cls-2" d="M54.15,16.15q.23,8,0,15.93a.17.17,0,0,0,.34,0q.21-8,0-15.93a.17.17,0,0,0-.34,0Z" transform="translate(-2.35 -0.21)"/><path class="cls-2" d="M44.25,10.33C47.73,12,51.39,13.49,54.37,16c.17.13.4-.1.24-.24-3-2.51-6.68-4.05-10.19-5.71-.19-.09-.36.2-.17.29Z" transform="translate(-2.35 -0.21)"/><path class="cls-2" d="M44,8.69Q49.44,12,55.17,14.78l-.06-.23-.58.82c-.12.18.17.35.29.17l.57-.82a.16.16,0,0,0-.06-.23Q49.62,11.72,44.18,8.4c-.18-.11-.35.18-.16.29Z" transform="translate(-2.35 -0.21)"/><path class="cls-2" d="M40.19,31.59l8.76.17a.17.17,0,0,0,0-.34l-8.76-.17a.17.17,0,0,0,0,.34Z" transform="translate(-2.35 -0.21)"/><path class="cls-2" d="M45.22,19.68C49,20,49,24.32,48.78,27.2L48.23,34a.17.17,0,0,0,.17.16l.89,0a.17.17,0,0,0,0-.34H48.4l.17.17L49,28.28c.19-2.3.42-4.51-.51-6.71a3.75,3.75,0,0,0-3.3-2.22c-.21,0-.21.31,0,.33Z" transform="translate(-2.35 -0.21)"/><path class="cls-2" d="M12.36,5.54a12.48,12.48,0,0,1,4.69-4.32C19.3.16,21.75.53,24.1,1.06c1.91.43,3.68,1.46,5.61,1.76,2.22.35,4.42-.37,6.49-1.07.21-.06.12-.39-.09-.32-2.63.88-5.23,1.61-7.94.62A28.58,28.58,0,0,0,21.56.28c-4.12-.5-7.22,1.83-9.49,5.09-.12.17.17.34.29.17Z" transform="translate(-2.35 -0.21)"/><path class="cls-2" d="M37.72,2.21c-.22-.59-.88-.53-1.35-.32a10.55,10.55,0,0,1-1.87.78,1.67,1.67,0,0,0-.8.39c-.16.16-.33.47-.18.69s.53.15.75.1a3.11,3.11,0,0,1,.44-.08,1,1,0,0,1,.42.1.71.71,0,0,0,.77-.26,1.94,1.94,0,0,1,.9-.56.17.17,0,0,0-.09-.32A2.07,2.07,0,0,0,36,3.1c-.18.15-.41.52-.68.47s-.24-.11-.38-.13a1.42,1.42,0,0,0-.41,0c-.14,0-.29.07-.44.09s-.2,0-.23,0,.07-.16.1-.2a1.71,1.71,0,0,1,.88-.38,6.94,6.94,0,0,0,.9-.34c.3-.14.59-.31.9-.44s.68-.2.81.13.39.12.32-.08Z" transform="translate(-2.35 -0.21)"/><path class="cls-2" d="M35.78,3.61a1,1,0,0,0,1.48.23.17.17,0,0,0,0-.24.18.18,0,0,0-.24,0,.46.46,0,0,1-.23.12l-.08,0h-.18l-.16,0s0,0,0,0l0,0-.07,0,0,0s0,0,0,0l-.06-.05,0,0s0,0,0,0l0-.07a.16.16,0,0,0-.23-.06.17.17,0,0,0-.06.23Z" transform="translate(-2.35 -0.21)"/><path class="cls-2" d="M37,1.36A6.77,6.77,0,0,1,40.11,2c.23.12.45.24.67.38s.31.17.38.31,0,.34,0,.49a1,1,0,0,0,.62.8,10.51,10.51,0,0,0,1.41.64c.28.1.67.15.73.49a1.67,1.67,0,0,1-.25.77,1.32,1.32,0,0,1-.39.52,1.24,1.24,0,0,1-1,0L40.6,6.1c-.21,0-.3.28-.08.32l1.64.34a1.72,1.72,0,0,0,1.28,0,1.76,1.76,0,0,0,.63-.84,1.45,1.45,0,0,0,.17-1c-.14-.37-.6-.44-.93-.56a7.62,7.62,0,0,1-1.5-.71c-.32-.21-.25-.45-.27-.77a.7.7,0,0,0-.21-.44,4.1,4.1,0,0,0-1.16-.72A7.14,7.14,0,0,0,37,1c-.21,0-.21.34,0,.33Z" transform="translate(-2.35 -0.21)"/><path class="cls-2" d="M39.87,7a4.11,4.11,0,0,0,1.63.46A1.1,1.1,0,0,0,42.61,7c.09-.19-.19-.36-.29-.16a.85.85,0,0,1-.89.33A4,4,0,0,1,40,6.75c-.19-.1-.36.19-.17.28Z" transform="translate(-2.35 -0.21)"/><path class="cls-2" d="M32.23,6.54A2.7,2.7,0,0,0,34.15,7a8.4,8.4,0,0,1,2.73.27A24.66,24.66,0,0,0,39.56,8c.91.15,2,.19,2.55,1.06a.16.16,0,0,0,.28-.17,2.53,2.53,0,0,0-1.78-1.07A22.35,22.35,0,0,1,37.8,7.2a9.93,9.93,0,0,0-2.57-.56c-.9,0-2,.29-2.76-.33-.17-.13-.41.1-.24.23Z" transform="translate(-2.35 -0.21)"/><path class="cls-1" d="M28.75,7.3a.55.55,0,0,1,.63.2c.15.18.25.41.41.58a2.09,2.09,0,0,0,1.55.44l5.41.06a10.84,10.84,0,0,1,1.51.1c1.27.23,2.61,1,3.76.4" transform="translate(-2.35 -0.21)"/><path class="cls-2" d="M28.79,7.46c.45-.1.85.78,1.2,1a2.59,2.59,0,0,0,1.17.25c1.34.05,2.7,0,4.05,0a15.45,15.45,0,0,1,4.07.38,4.06,4.06,0,0,0,2.83.11c.19-.08,0-.37-.17-.29-1.2.52-2.45-.2-3.63-.41a24.71,24.71,0,0,0-3.75-.13,33.7,33.7,0,0,1-3.76-.06A1.4,1.4,0,0,1,29.91,8c-.16-.17-.25-.41-.42-.58a.78.78,0,0,0-.79-.24c-.21,0-.12.36.09.32Z" transform="translate(-2.35 -0.21)"/><path class="cls-2" d="M41.94,7.66a2.8,2.8,0,0,1,.79.4l.15.13,0,0s0,0,0,0v0h0v0h0l0,0H42.6a.17.17,0,0,0-.17.16.18.18,0,0,0,.17.17.61.61,0,0,0,.55-.16.39.39,0,0,0,.08-.31.45.45,0,0,0-.18-.25,3,3,0,0,0-1-.55.16.16,0,0,0-.2.12.17.17,0,0,0,.12.2Z" transform="translate(-2.35 -0.21)"/><path class="cls-2" d="M40.33,4.44a1.26,1.26,0,0,0,1-.09.17.17,0,0,0,.06-.23.15.15,0,0,0-.22-.06l-.06,0s-.06,0,0,0l-.1,0-.09,0h-.06s0,0,0,0h-.28l-.11,0a.16.16,0,0,0-.2.11.18.18,0,0,0,.11.21Z" transform="translate(-2.35 -0.21)"/><path class="cls-1" d="M20.63,7.31a8.47,8.47,0,0,0,8.42.21" transform="translate(-2.35 -0.21)"/><path class="cls-2" d="M20.55,7.46a8.69,8.69,0,0,0,8.59.2c.19-.1,0-.39-.17-.29a8.34,8.34,0,0,1-8.26-.2c-.18-.11-.35.18-.16.29Z" transform="translate(-2.35 -0.21)"/><path class="cls-1" d="M18.79,5.24a2.38,2.38,0,0,1-.27,1.09,2.54,2.54,0,0,1-.79.7l-1.41.9a3.74,3.74,0,0,1,1.87.25,1,1,0,0,1,.41.29.38.38,0,0,1,0,.46.51.51,0,0,1-.29.1,5,5,0,0,1-1.49-.18A7.07,7.07,0,0,0,13.64,9c-.3.08-.68.15-.87-.1s0-.68.33-.87.67-.33.79-.66A1.3,1.3,0,0,1,13.27,6" transform="translate(-2.35 -0.21)"/><path class="cls-2" d="M18.63,5.24a2.62,2.62,0,0,1-.2.92,1.84,1.84,0,0,1-.62.62l-1.57,1c-.13.08-.09.33.08.31a3.65,3.65,0,0,1,1.32.08,2.29,2.29,0,0,1,.62.22c.08,0,.22.13.24.24s-.17.23-.32.24a6.57,6.57,0,0,1-1.38-.2,7.45,7.45,0,0,0-1.25-.12,8.08,8.08,0,0,0-1.2.09,6.1,6.1,0,0,1-1.19.23c-.3,0-.36-.27-.21-.5A1.22,1.22,0,0,1,13.4,8a1.38,1.38,0,0,0,.64-.6A.16.16,0,0,0,14,7.2,1.15,1.15,0,0,1,13.43,6c0-.21-.28-.3-.32-.09a1.47,1.47,0,0,0,.7,1.55l-.06-.22c-.26.56-1.38.67-1.22,1.49s1.27.33,1.75.25a8.09,8.09,0,0,1,3.06.13c.44.08,1.82.24,1.45-.65-.15-.36-.62-.5-1-.59a4,4,0,0,0-1.51-.13l.09.31c.61-.39,1.27-.75,1.84-1.2A2.11,2.11,0,0,0,19,5.24c0-.21-.31-.21-.33,0Z" transform="translate(-2.35 -0.21)"/><path class="cls-2" d="M17.76,7.73a12.87,12.87,0,0,1,2.84-.17c.21,0,.21-.32,0-.33a13.09,13.09,0,0,0-2.93.18c-.21,0-.12.35.09.32Z" transform="translate(-2.35 -0.21)"/><path class="cls-2" d="M11.79,5.83a3.17,3.17,0,0,0-.3,4.08,4.25,4.25,0,0,0,.78.86,2.32,2.32,0,0,0,1,.58A.65.65,0,0,0,14,11c.15-.37-.12-.74-.33-1l-.46-.64a2.55,2.55,0,0,1-.42-.69,2,2,0,0,1,.48-1.57A.17.17,0,0,0,13,6.9a3.1,3.1,0,0,0-.55,1.26,1.67,1.67,0,0,0,.41,1.22,7.18,7.18,0,0,1,.81,1.17c.16.35-.11.55-.44.44a2.18,2.18,0,0,1-.64-.41,3.5,3.5,0,0,1-1.32-2.11A2.67,2.67,0,0,1,12,6.07a.17.17,0,0,0-.24-.24Z" transform="translate(-2.35 -0.21)"/><path class="cls-2" d="M42.79,4.42a.94.94,0,0,0,.21.92,1,1,0,0,0,.91.25A.17.17,0,0,0,44,5.43a.76.76,0,0,0-.71-.73.17.17,0,0,0-.16.21.84.84,0,0,0,.23.4.2.2,0,0,0,.31-.06.23.23,0,0,0,0-.28.17.17,0,0,0-.23,0,.16.16,0,0,0,0,.24A.11.11,0,0,1,43.51,5l.12.05,0,0,0,0,0,0s0,0,0,0a.25.25,0,0,1,0-.07s0,0,0,0v0L43.32,5h.11s0,0,0,0h0l.08,0s0,0,0,0,0,0,0,0l0,0h0v0l.05.08h0v0l0,0v.08l.13-.17,0,0h-.18l-.09,0h-.07s0,0,0,0l0,0,0,0,0,0s0,0,0,0l0,0,0,0s0,0,0,0L43.14,5l0,0s0,0,0,0l0-.1v0s0,0,0,0V4.62s0,0,0,0a.3.3,0,0,1,0-.1A.17.17,0,0,0,43,4.3a.17.17,0,0,0-.2.12Z" transform="translate(-2.35 -0.21)"/><path class="cls-1" d="M40.11,31.22a7.82,7.82,0,0,0-.8,1.77c-.13.4-.42,1.22.19,1.39a.29.29,0,0,0,.35-.27,3,3,0,0,0-.26-1.49c-.13-.28-.61-.08-.51.22l.61,1.84a.28.28,0,0,0,.55-.07l.12-1.82a5.35,5.35,0,0,1,.25-1.64l-.51.06.42.72a.28.28,0,0,0,.48,0,2.13,2.13,0,0,0,.22-.83l-.52.14.31.59a.28.28,0,0,0,.48,0l.44-.69-.51-.07a7.59,7.59,0,0,0,.52,1.17.27.27,0,0,0,.5-.07l.27-1-.55-.08a3.58,3.58,0,0,0,.44,1.35.28.28,0,0,0,.5-.07A3.39,3.39,0,0,0,43.34,31l-.54.08.26.79a.28.28,0,0,0,.54,0l.23-.95-.51.07a2.93,2.93,0,0,1,.24,1c0,.25.38.4.52.14a2.53,2.53,0,0,0,.28-1c0-.36-.51-.36-.55,0a2.07,2.07,0,0,1-.21.68l.52.14a3.82,3.82,0,0,0-.32-1.29.28.28,0,0,0-.51.07l-.23.94h.54L43.33,31a.28.28,0,0,0-.54.07,3.27,3.27,0,0,1-.22,1.2l.51-.07a2.89,2.89,0,0,1-.36-1.07c0-.29-.46-.4-.55-.07l-.26,1,.51-.06a6.86,6.86,0,0,1-.46-1,.29.29,0,0,0-.51-.07l-.44.7h.48L41.18,31c-.13-.26-.5-.11-.51.14a1.66,1.66,0,0,1-.15.55H41l-.42-.72a.28.28,0,0,0-.5.07,5.4,5.4,0,0,0-.27,1.7l-.13,1.91.55-.08-.61-1.84-.51.21a2.39,2.39,0,0,1,.18,1.21l.36-.27c.05,0,0,0,0,0s0-.07,0-.1.05-.21.07-.32.14-.45.22-.67a6.8,6.8,0,0,1,.61-1.24.28.28,0,0,0-.48-.29Z" transform="translate(-2.35 -0.21)"/><path class="cls-1" d="M43.6,32.38c1.27.09,5.3,1,6.12-.47.09-.17,0-.56.13-.66.35-.36,1,.13,1.57.4a9,9,0,0,0,2.95.93L54,31a21.13,21.13,0,0,1-3.11,1.58c-.46.18-.92.34-1.4.48l.18-.31c.22.78,1.84,1.27,2.52,1a1.59,1.59,0,0,0,1-1.57c-.17-1.28-1.56-1-2.35-1.68a.85.85,0,0,0-1.4.37L49,32.88c-.22,1,1.39,1.5,1.61.45l.4-1.95-1.39.37c.23.19,1.52,1.24,1.85,1S50.09,31,49.65,30.87c-1.17-.26-1.82.9-2,1.91-.73,4.17,5.86.46,7.14-.31a.85.85,0,0,0-.42-1.56c-1.7-.19-4.07-2.68-5.71-1.1-.36.35-.3,1.24-.5,1.42.21-.19-2.06-.38-2.11-.39-.82,0-1.64-.07-2.45-.13-1.07-.08-1.07,1.59,0,1.67Z" transform="translate(-2.35 -0.21)"/><path class="cls-2" d="M38.9,32.66l-.17.06.21.2a6.31,6.31,0,0,1,.77-1.48c.1-.13-.06-.26-.19-.24l-.68.1.16.28a15.19,15.19,0,0,0,1.16-1.25.16.16,0,0,0-.11-.28c.38,0,.9-.34,1.26-.52l1.3-.64a.17.17,0,0,0,0-.26l-.21-.22-.12.28,1.61,0a.17.17,0,0,0,.15-.25,1.57,1.57,0,0,0-.2-.3l-.16.28,2,.33a.17.17,0,0,0,.19-.25L45.63,28l-.23.23a6.25,6.25,0,0,1,1.26.77c.09.06.26.06.28-.08l0-.21-.24.1a7,7,0,0,1,1.05.91.18.18,0,0,0,.27,0c-.06.1.62.53.74.62s.34-.17.16-.29-.94-1-1.19-.5l.26,0a8,8,0,0,0-1.12-1,.18.18,0,0,0-.25.1l0,.21.28-.07a7.33,7.33,0,0,0-1.33-.82.17.17,0,0,0-.23.23l.25.49.19-.25-2-.32a.17.17,0,0,0-.17.28l.15.23.14-.25-1.61,0a.17.17,0,0,0-.12.28l.22.22,0-.26-1.21.6a8.67,8.67,0,0,0-1.26.62c-.24.18-.28.52.08.56l-.12-.28a15.19,15.19,0,0,1-1.17,1.24c-.13.13,0,.3.17.28l.68-.1-.19-.25a7.19,7.19,0,0,0-.8,1.56.17.17,0,0,0,.2.21L39,33c.2-.07.11-.39-.09-.32Z" transform="translate(-2.35 -0.21)"/><path class="cls-2" d="M49.71,31.17l-.38-1c0-.1-.29-.6,0-.61.07,0,.18.1.27.1.58,0,.23-.62.11-.87l-.19.24c.3.08.74.5,1,0l-.26,0a2,2,0,0,0,.93.46,6.17,6.17,0,0,1,1,.57.17.17,0,0,0,.2,0,.26.26,0,0,0,.08-.28l-.28.16a3.88,3.88,0,0,0,2,1.13c.85.09,1.52-.51,2.32-.67l-.21-.16a1.92,1.92,0,0,1-.67,1.41c-.16.14.07.37.23.23a2.21,2.21,0,0,0,.77-1.64.17.17,0,0,0-.21-.16c-.69.14-1.29.65-2,.67a3.21,3.21,0,0,1-2-1,.17.17,0,0,0-.28.16v.07l0-.16,0,0,.2,0a2.46,2.46,0,0,1-.45-.25,3.19,3.19,0,0,0-.43-.32c-.12-.05-.28,0-.41-.08a1.31,1.31,0,0,1-.56-.32.18.18,0,0,0-.27,0c-.06.13-.48-.16-.59-.19a.17.17,0,0,0-.19.24c0,.09.21.31.08.32s-.2-.09-.29-.09a.42.42,0,0,0-.37.28,1.18,1.18,0,0,0,.14.8l.38,1c.07.2.39.12.32-.08Z" transform="translate(-2.35 -0.21)"/><path class="cls-2" d="M56.21,30.71a7,7,0,0,0-1,.52.17.17,0,0,0-.06.23.18.18,0,0,0,.23.06,4.39,4.39,0,0,1,.47-.27L56.3,31a.18.18,0,0,0,.11-.21.16.16,0,0,0-.2-.12Z" transform="translate(-2.35 -0.21)"/><path class="cls-2" d="M50.51,32.14c0-.27-.07-.55-.09-.82s0-.27,0-.41,0-.13,0-.19a1.34,1.34,0,0,1,0-.19l0,.07h0l-.08,0s0,0,0,0l.09,0,.16.07a3.14,3.14,0,0,1,.31.18,3.37,3.37,0,0,1,.58.41v-.24c0,.05-.4.44-.46.33a.17.17,0,0,0-.31.08,1.1,1.1,0,0,1,0,.18l.2-.12-.13,0a.17.17,0,0,0-.2.12.16.16,0,0,0,.12.2l.12,0a.16.16,0,0,0,.21-.11,1.24,1.24,0,0,0,0-.27l-.31.08a.4.4,0,0,0,.54.13,1.5,1.5,0,0,0,.45-.38.18.18,0,0,0,0-.24,4.88,4.88,0,0,0-.7-.49,2.75,2.75,0,0,0-.38-.2.56.56,0,0,0-.39-.11c-.17.06-.13.26-.12.41l0,.48c0,.32.06.63.1.94a.17.17,0,0,0,.34,0Z" transform="translate(-2.35 -0.21)"/><path class="cls-2" d="M50.43,32.76a.49.49,0,0,0-.16.45.32.32,0,0,0,.15.19.33.33,0,0,0,.26,0h-.07l-.1-.07s0-.05,0,0v0a.17.17,0,0,0,0,.07s0,.1,0,.14l-.06.3a.17.17,0,0,0,.24.19l.08,0s-.1,0-.07-.05l0,.05a.66.66,0,0,0,.11.24.92.92,0,0,0,.42.34.17.17,0,0,0,.21-.12.18.18,0,0,0-.12-.2.52.52,0,0,1-.3-.36.29.29,0,0,0-.21-.23.48.48,0,0,0-.31.07l.25.19c0-.12.05-.24.07-.36a.78.78,0,0,0,0-.37.17.17,0,0,0-.14-.13h-.14a0,0,0,0,1,.05,0s0,0,0,0a.28.28,0,0,1,.08-.11.16.16,0,0,0,0-.23.17.17,0,0,0-.24,0Z" transform="translate(-2.35 -0.21)"/><path class="cls-2" d="M40.87,33.82c1.44,1.24,3.34,1.3,5.14,1.14a20.7,20.7,0,0,1,3.43-.18,9,9,0,0,0,3.1-.24l-.2-.11.06.19a.16.16,0,0,0,.16.12l1.37,0-.16-.21c-.1.51.7.64,1,.8v-.29l-.3.13c-.13.06-.09.23,0,.29l.69.54,0-.31a27.38,27.38,0,0,1-9.24,1c-.91-.05-1.82-.13-2.73-.22a13.89,13.89,0,0,1-2.41-.27A3.1,3.1,0,0,1,39,33.34a.17.17,0,0,0-.34,0A3.69,3.69,0,0,0,39.87,36a2.51,2.51,0,0,0,1.51.61c1,.13,2,.2,3,.29a38.25,38.25,0,0,0,6.51.06c.81-.08,1.56-.35,2.37-.44.43,0,.85-.15,1.28-.24s.51-.19.78-.27a.17.17,0,0,0,0-.3l-.69-.54v.29l.3-.13a.17.17,0,0,0,0-.29,8.37,8.37,0,0,1-.9-.42.17.17,0,0,0-.16-.21c-.12,0-1.22.06-1.27-.09a.17.17,0,0,0-.2-.12c-1.92.47-3.86.15-5.82.34s-4,.35-5.54-1c-.16-.14-.4.1-.23.24Z" transform="translate(-2.35 -0.21)"/><path class="cls-2" d="M54.45,35.05a5.49,5.49,0,0,1,.68-.24,1,1,0,0,1,.58,0c.14,0,.3.15.32.31a.25.25,0,0,1,0,.08s0,0,0,0a.08.08,0,0,1,0,0s0,0,0,0a.17.17,0,0,0-.33.05.24.24,0,0,1-.1.19h.23l-.17-.14a.17.17,0,0,0-.28.07.22.22,0,0,1-.19.21c-.21,0-.12.37.09.32a.56.56,0,0,0,.43-.44l-.28.08.17.14a.17.17,0,0,0,.23,0,.61.61,0,0,0,.21-.43l-.33,0a.37.37,0,0,0,.32.24.39.39,0,0,0,.32-.13.57.57,0,0,0-.13-.78c-.52-.44-1.22-.12-1.77.09a.17.17,0,1,0,.09.32Z" transform="translate(-2.35 -0.21)"/><path class="cls-2" d="M55.72,31.94a.91.91,0,0,1,.38.46,1.5,1.5,0,0,0,0,.3.31.31,0,0,0,.08.15l0,0s0,0,0,0,0,0,0,0l0,0a.28.28,0,0,0,0,.28s.06.07.08.11a.2.2,0,0,1,0,.13,1.9,1.9,0,0,1-.33.63c-.14.16.09.4.23.23a2.27,2.27,0,0,0,.37-.64.68.68,0,0,0,.08-.34.3.3,0,0,0-.06-.18s-.06-.07-.07-.11v.09s0-.09.07-.15a.24.24,0,0,0,0-.2s-.08-.08-.09-.14,0-.13,0-.2A1.09,1.09,0,0,0,56,31.7a.17.17,0,0,0-.23,0,.17.17,0,0,0,0,.24Z" transform="translate(-2.35 -0.21)"/><path class="cls-2" d="M54.59,34a.06.06,0,0,0,0,0v0a.06.06,0,0,0,0,0v0s0,0,0,0,0,0,0,0l0,0s0,0,0,0l.06-.06s0,0,0,0,0,0,0,0l0,0a2.27,2.27,0,0,0,.34-.19.14.14,0,0,0,.08-.1.13.13,0,0,0,0-.12.14.14,0,0,0-.1-.08.15.15,0,0,0-.13,0,1.43,1.43,0,0,1-.21.12,1.16,1.16,0,0,0-.24.14.5.5,0,0,0-.18.51.18.18,0,0,0,.21.12.17.17,0,0,0,.11-.21Z" transform="translate(-2.35 -0.21)"/><path class="cls-2" d="M52.27,33.59c.14.1.31.08.47.15l0,0,.07,0,0,0,0,0,0,0,0,0v0s0,0,0,.06v0a0,0,0,0,1,0,0l0,0s0,0,0,0l0,0v0a.15.15,0,0,0,0,.23A.16.16,0,0,0,53,34a.33.33,0,0,0,.08-.3.37.37,0,0,0-.17-.24,2.15,2.15,0,0,0-.45-.14l0,0-.07,0a.15.15,0,0,0-.13,0,.16.16,0,0,0-.1.08.19.19,0,0,0,0,.13.25.25,0,0,0,.08.1Z" transform="translate(-2.35 -0.21)"/><path class="cls-2" d="M53.49,33.92a0,0,0,0,1,0,0v0a.13.13,0,0,1,0,.06v0a.15.15,0,0,0,0,.13.08.08,0,0,0,0,0,.05.05,0,0,0,0,0,.18.18,0,0,0,.13,0,.19.19,0,0,0,.08-.1.28.28,0,0,0,0-.09V33.9a.19.19,0,0,0,0-.07l0-.08a.16.16,0,0,0-.1-.08s0,0-.07,0l-.06,0a.16.16,0,0,0-.08.1.2.2,0,0,0,0,.13Z" transform="translate(-2.35 -0.21)"/><path class="cls-2" d="M53,31.3l.24-.06.23,0H54a.17.17,0,0,0,.21-.12.16.16,0,0,0-.12-.2,2.54,2.54,0,0,0-1.13.09.17.17,0,0,0-.12.21.17.17,0,0,0,.21.11Z" transform="translate(-2.35 -0.21)"/><path class="cls-2" d="M42.6,30.42a2.85,2.85,0,0,1,2.18,1.25,5.09,5.09,0,0,1,.8,2.73.17.17,0,0,0,.34,0,5.33,5.33,0,0,0-.92-3,3.18,3.18,0,0,0-2.4-1.31.17.17,0,1,0,0,.33Z" transform="translate(-2.35 -0.21)"/><path class="cls-1" d="M38.36,31.71a11.41,11.41,0,0,1,0,1.85c0,.31,0,.63,0,.94a1,1,0,0,0,.11.72.29.29,0,0,0,.27.07h0a.28.28,0,0,0,.19-.19,14.42,14.42,0,0,0,.18-3.15.28.28,0,0,0-.55,0v2.74a2.83,2.83,0,0,1-.07.77.28.28,0,0,0,.54.15,6.76,6.76,0,0,0,.08-1.74V31.94h-.55a13.67,13.67,0,0,1-.17,3l.2-.19h0l.27.08c.09.1,0,.08.05,0v-.19c0-.15,0-.29,0-.44s0-.56,0-.84a11.51,11.51,0,0,0,0-1.66.28.28,0,1,0-.56,0Z" transform="translate(-2.35 -0.21)"/><path class="cls-2" d="M39,31.57l-.11,4c0,.21.33.21.33,0l.11-4c0-.21-.33-.21-.33,0Z" transform="translate(-2.35 -0.21)"/><path class="cls-2" d="M3.62,33.74H32.18a.17.17,0,0,0,0-.33H3.62a.17.17,0,0,0,0,.33Z" transform="translate(-2.35 -0.21)"/><path class="cls-2" d="M8.31,28.61H32.47a.17.17,0,0,0,0-.33H8.31a.17.17,0,0,0,0,.33Z" transform="translate(-2.35 -0.21)"/><path class="cls-2" d="M3.62,24.08H29.83a.17.17,0,0,0,0-.34H3.62a.17.17,0,0,0,0,.34Z" transform="translate(-2.35 -0.21)"/><path class="cls-2" d="M5.53,25.54a.17.17,0,0,0,0-.33.17.17,0,1,0,0,.33Z" transform="translate(-2.35 -0.21)"/><path class="cls-2" d="M32,25.1a.17.17,0,0,0,0-.33.17.17,0,0,0,0,.33Z" transform="translate(-2.35 -0.21)"/><path class="cls-2" d="M31.88,31.84a.17.17,0,0,0,0-.34.17.17,0,0,0,0,.34Z" transform="translate(-2.35 -0.21)"/><path class="cls-2" d="M32,36.52a.17.17,0,0,0,0-.33.17.17,0,0,0,0,.33Z" transform="translate(-2.35 -0.21)"/><path class="cls-2" d="M4.21,36.81a.17.17,0,0,0,0-.33.17.17,0,0,0,0,.33Z" transform="translate(-2.35 -0.21)"/><path class="cls-2" d="M4.5,30.37a.17.17,0,0,0,0-.33.17.17,0,0,0,0,.33Z" transform="translate(-2.35 -0.21)"/><path class="cls-2" d="M43.54,15.43A4.23,4.23,0,0,0,42,14.86a.16.16,0,0,0-.21.16,2.56,2.56,0,0,0,.69,1.61l.11-.29a1.61,1.61,0,0,0-1.28.39.73.73,0,0,0,.11,1c1,.88,2-.52,2.83-.92a3,3,0,0,1,2-.2,4.43,4.43,0,0,1,.87.36.53.53,0,0,0,.57-.06c.41-.35.13-.9,0-1.29a.85.85,0,0,1,0-.61.75.75,0,0,0,0-.3.61.61,0,0,0-.36-.41c-.56-.25-1,.14-1.35.54a2.22,2.22,0,0,1-.92.68,5.62,5.62,0,0,1-1.14.23c-.21,0-.22.36,0,.33a4.86,4.86,0,0,0,1.36-.29,2.64,2.64,0,0,0,1-.79,1.24,1.24,0,0,1,.53-.43c.22,0,.54,0,.54.28s-.12.39-.07.63.21.47.28.72a.61.61,0,0,1,0,.3c0,.19-.17.21-.35.14s-.4-.21-.62-.29a3.3,3.3,0,0,0-1.36-.14,3.13,3.13,0,0,0-1.26.38c-.42.23-.75.59-1.15.85s-1.16.4-1.32-.18.76-.64,1.11-.62a.17.17,0,0,0,.12-.29A2.18,2.18,0,0,1,42.14,15l-.22.16a4.36,4.36,0,0,1,1.45.53.16.16,0,0,0,.17-.28Z" transform="translate(-2.35 -0.21)"/><path class="cls-2" d="M50.19,39.13l11.77,0h2.95A5.7,5.7,0,0,0,67,39c1-.43.21-1.59.62-2.36l-.31,0,.46,1.67a.17.17,0,0,0,.31,0l.38-.26a.17.17,0,0,0,.31.08l1-1.93-.3,0a22.68,22.68,0,0,1,.65,2.94.17.17,0,0,0,.16.12l9,.18a.16.16,0,0,0,0-.33l-6-.12c-.67,0-2.48.26-2.9-.36a3.76,3.76,0,0,1-.21-1.06c-.11-.49-.24-1-.38-1.46a.17.17,0,0,0-.31,0l-1,1.93.31.09c-.09-.75-.77-.38-1,.09l.3,0-.46-1.67a.17.17,0,0,0-.3,0,1.54,1.54,0,0,0-.18.89c0,.66.41,1-.74,1.37a3.57,3.57,0,0,1-1,0H60.25l-10.06,0a.17.17,0,0,0,0,.33Z" transform="translate(-2.35 -0.21)"/><path class="cls-2" d="M77.51,37.57c2.81,0,5.61,0,8.42,0a.18.18,0,0,0,.17-.17L86,36.11l-.28.12,1.24,1a.17.17,0,0,0,.28-.07,7.84,7.84,0,0,0,.32-2.25.17.17,0,1,0-.33,0,.76.76,0,0,0,.82.81c.65,0,.94-.74,1.14-1.24h-.32l.7,3.15a.16.16,0,0,0,.16.12c2.56,0,5.36.53,7.85-.26.2-.07.11-.39-.09-.32a15.75,15.75,0,0,1-5.17.34,9.57,9.57,0,0,1-2.21-.08c-.43-.14-.43-.83-.53-1.29l-.39-1.75c0-.17-.26-.13-.32,0-.12.64-.55.81-1.31.52H87.2a7.89,7.89,0,0,1-.31,2.16l.28-.07-1.25-1c-.09-.08-.29,0-.28.12s.19.85.09,1-.65.15-1,.15l-2.49,0c-1.59,0-3.19,0-4.78,0a.17.17,0,0,0,0,.34Z" transform="translate(-2.35 -0.21)"/><path class="cls-1" d="M39.75,35.44a2.75,2.75,0,0,0,1.67,1,2.85,2.85,0,0,0,1.37-.53c1-.56,2.24-.4,3.21-1,1.48-1,.1-3.35-1.39-2.38a7.9,7.9,0,0,1-1.86.44c-.31.11-.62.23-.92.37s-.38.19-.57.29l-.2.13,1.06.14a3.39,3.39,0,0,1-.42-.33c-1.33-1.16-3.29.78-2,1.94Z" transform="translate(-2.35 -0.21)"/></svg>