<svg id="Layer_1" data-name="Layer 1" xmlns="http://www.w3.org/2000/svg" viewBox="0 0 183.48 145.12"><defs><style>.cls-1{fill:#fffced;}.cls-2{fill:#56422b;}.cls-3{fill:#1d1d1b;}.cls-4{fill:#fff;}.cls-5{fill:none;stroke:#56422b;stroke-miterlimit:10;stroke-width:1.12px;}</style></defs><path class="cls-1" d="M10.8,42.32l2.72,16.33c1,5.76,10,4.24,10-1.35A52,52,0,0,0,20.33,39l-4.91,6.45a370.64,370.64,0,0,1,93.85,7.78l1.35-10A342.07,342.07,0,0,0,59.69,51C54.13,52.27,55.28,61.23,61,61l19.46-.83c6.42-.27,12.72-.75,18.86,1.47l-1.22-9.3C83.6,58.85,68,64.42,55.53,74.62c-4.42,3.63.59,9.15,4.95,8.51l38.18-5.59-5-8.51A227.69,227.69,0,0,1,61.47,93c-4.69,2.89-1.66,11.48,3.93,9.3C79.27,96.87,93.22,91.57,108,89.21l-3.92-9.3q-21.72,9.77-42.59,21.28c-5.88,3.25-.71,11.3,5.14,8.79a153.27,153.27,0,0,1,41.59-11.27l-2.57-9.48c-6.74,4.72-14.55,8-21.91,11.61L59.62,112.76c-5.5,2.72-1.4,10.26,3.92,9.3,17-3.08,34.05-6,51.4-4.76l-2.57-9.48c-16.18,7-33.54,13.24-45.75,26.52-2.86,3.1-1,8.83,3.59,8.68a236.25,236.25,0,0,0,36.07-4c6.44-1.21,3.7-11-2.71-9.82l-52.06,9.45,2.7,9.82,7-1.86c5.5-1.46,4.45-10.13-1.35-10a375.26,375.26,0,0,1-40.52-1.23c-6.63-.55-6.34,9.37,0,10.18q41.51,5.34,82.67,12.9c6.41,1.17,9.15-8.63,2.71-9.81q-42.51-7.78-85.38-13.27v10.18a375.26,375.26,0,0,0,40.52,1.23l-1.35-10-7,1.85c-6.42,1.71-3.65,11,2.7,9.82L106.28,139l-2.71-9.82a218.49,218.49,0,0,1-33.36,3.63l3.6,8.68c11.55-12.55,28.4-18.34,43.7-24.93,5-2.17,1.9-9.17-2.57-9.48-18.22-1.25-36.24,1.9-54.1,5.13l3.92,9.3,24.11-11.92C96.23,106,104,102.75,110.78,98c3.63-2.55,3-10.17-2.57-9.49a170.39,170.39,0,0,0-46.73,12.66L66.62,110Q87.47,98.46,109.21,88.7c5.67-2.56,1.28-10.14-3.92-9.31-14.78,2.37-28.72,7.67-42.6,13.08l3.92,9.3a243.53,243.53,0,0,0,34.3-25.54c4.22-3.76-.45-9.17-5-8.51L57.78,73.31l4.95,8.51c11.61-9.52,27-14.62,40.55-20.7,4.37-2,2.46-8-1.22-9.3-6.38-2.31-13-2.19-19.71-1.91L61,50.81l1.35,10a323.26,323.26,0,0,1,48.23-7.36c5.38-.41,7.32-8.72,1.35-10A381.34,381.34,0,0,0,15.42,35.3c-3,.13-6.11,3.18-4.9,6.44A43.73,43.73,0,0,1,13.34,57.3l10-1.36L20.62,39.61c-1.07-6.45-10.88-3.71-9.82,2.71Z" transform="translate(-8.6 -27.26)"/><path class="cls-1" d="M11.06,43.34a354.1,354.1,0,0,0,2.67,47c.92,7.32,2.09,14.58,3.36,21.85,1.21,6.91,2.45,14.52-.64,21.13l9.48,2.57c-1.16-14-3.35-28.33-2.76-42.37.61-14.57,4-29.23,6.24-43.61L24.5,53.6c22.41,2.41,44.92.9,67.4,1.31,23,.43,45.77,3.54,68.5,6.74l1.35-10c-27.59,3.67-56-.44-83,7.49-4.48,1.32-5.19,8.92,0,9.81a299.15,299.15,0,0,1,33.84,7.87l-2.25-8.51c-7.19,7.54-15.66,13.44-24.25,19.27-3.75,2.54-2.88,10,2.57,9.48l31.12-3.22-3.59-8.69L95.94,101c-2.93,2.3-1.3,7.86,2.25,8.51a55.31,55.31,0,0,1,13.92,4.35l-1-8c-5.91,5.42-13.38,13-15.49,21-1.81,6.92,4.14,15.47,11.78,12.3,5.92-2.45,3.87-11.25-2.7-9.81a123.65,123.65,0,0,1-21.94,2.77l3.6,8.69q9.86-8.15,20.46-15.26l-7-7a84.81,84.81,0,0,1-10,12.62c-2.09,2.17-2,6.57,1,8a77.86,77.86,0,0,1,17,10.56l3.6-8.69A160.11,160.11,0,0,1,86,140.57c-6.56-.67-6.37,9.37,0,10.17l22.67,2.85c5.74.73,6.81-8.62,1.35-10-15.11-3.81-30.26-7.54-45.76-9.43A209.6,209.6,0,0,0,42,132.94c-1.81,0-3.61-.06-5.41-.17-1.27-.08-5-1.1-3.09,1.38-.7-.9-.17-4.55-.22-5.88L33,121.41l-1.79-48A57.37,57.37,0,0,0,31,67.52c.58-1.61.42-2.23-.47-1.86s-.5.23,1.58,0c3.91-.06,7.84-.34,11.75-.5l25.47-1.09-3.59-8.69C56.94,66,42.17,68.49,33.65,79.72c-2.91,3.83,1.88,8.31,5.75,7.47,9.79-2.11,19.54-4.12,29.6-4.25l-3.6-8.69L30.91,103.12c-4.22,3.53.43,9.42,4.95,8.51a149.58,149.58,0,0,1,31-2.9l-2.57-9.49Q49,109.88,33.4,120c-4,2.63-2.7,9.62,2.57,9.48,12.59-.33,25.18-.53,37.22,3.69v-9.81A161.11,161.11,0,0,1,45,124.83l1.36,10q19.69-3,39.12-7.5c5.63-1.31,4.34-10-1.36-10-11.53,0-23.07,0-34.4-2.39l2.24,8.5a216.8,216.8,0,0,1,19.36-15.07,5.11,5.11,0,0,0-3.92-9.3L30.94,106l6.26,3.55c-.65-2.23,6-7.34,7.38-8.72q4.19-4,8.58-7.88c6-5.24,12.2-10.14,18.66-14.76l-6.17-8L41.92,91.5c-4.61,4.13,1.25,10.22,6.16,8L80.21,84.92l-6.17-8A74,74,0,0,1,57.54,90l6.17,8L78,80.26c2.81-3.48.35-10.52-5-8.51a73.22,73.22,0,0,1-20.62,4.82c-2.7.19-6.94,1.37-7.13-2.12-.17-3,1.39-6,1.24-9.1H36.36l1.45,10.89,10-1.36A63.87,63.87,0,0,0,33.07,50.47c-3-3.1-8.86-.82-8.69,3.6C25.13,74.13,28.06,94,31,113.81c.91,6.11,9.45,3.86,10-1.36Q43,94.06,43.44,75.56L34,78.13a255.69,255.69,0,0,1,15.12,22.61c2.62,4.4,9.36,2.45,9.49-2.57q.45-17.79-.85-35.53c-.42-5.65-8.21-7-10-1.35A232.06,232.06,0,0,0,39.06,99c-.75,5.34-1.05,10.83-2.46,16.06-1.49,5.51-5.61,8.41-8.23,13.2-1.69,3.09-.07,6.32,3,7.48a187.87,187.87,0,0,0,26.41,7.71c6.39,1.36,9.12-8.45,2.7-9.82a188.22,188.22,0,0,1-26.41-7.7l3,7.47c2.64-4.84,6.7-8,8.6-13.47,1.77-5.07,2.14-10.54,2.8-15.83a226.67,226.67,0,0,1,9-40.11l-10-1.35q1.3,17.74.85,35.53l9.48-2.56A254.38,254.38,0,0,0,42.75,73c-2.92-3.88-9.35-2.84-9.49,2.57q-.49,18.5-2.42,36.89l10-1.35c-2.83-18.93-5.57-37.88-6.28-57l-8.69,3.6A52.18,52.18,0,0,1,38,77.59c1.7,5.09,10.79,4.64,10-1.35L46.54,65.35c-.84-6.27-10.51-6.73-10.18,0,.22,4.43-2,8.58-1,13.08a10.52,10.52,0,0,0,8.73,8.21c10,1.87,22.32-1.53,31.65-5.07l-5-8.51L56.51,90.82c-3.42,4.26.83,11.12,6.17,8A84.22,84.22,0,0,0,81.24,84.12c4.17-4.39-1.06-10.31-6.17-8L43,90.7l6.16,8L72.85,77.39c4.23-3.8-1.43-11.39-6.17-8A264.53,264.53,0,0,0,42,89.33c-6.09,5.58-17.34,13.39-14.57,22.92a5.23,5.23,0,0,0,6.26,3.55l36.45-6.92-3.92-9.31a239.25,239.25,0,0,0-21.41,16.66c-2.82,2.46-1.39,7.74,2.24,8.51,12.24,2.58,24.66,2.78,37.11,2.76l-1.35-10Q63.35,122,43.64,125c-5.86.89-4.15,9.82,1.35,10a174.67,174.67,0,0,0,30.91-1.83c5.42-.79,4.2-8.34,0-9.81C63.05,118.85,49.42,119,36,119.3l2.57,9.49Q54.13,118.65,69.38,108c4-2.79,2.75-9.44-2.57-9.48a163.23,163.23,0,0,0-33.65,3.26l5,8.51L72.6,81.45c3.46-2.89.57-8.74-3.6-8.69-11,.14-21.65,2.32-32.31,4.62l5.75,7.47c7.72-10.17,22.24-12.32,30.48-22.27,2.61-3.14,1.17-8.89-3.6-8.68L39.93,55.16c-6.71.28-17.46-1.29-19,7.62-.7,4,0,8.5.18,12.57l.51,13.72,1.09,29.4c.17,4.57.28,9.15.51,13.72.18,3.71.46,7.37,4.19,9.25,3.16,1.6,7.5,1.45,11,1.59,4.23.18,8.48.07,12.72.24,19.11.73,37.75,5.49,56.21,10.14l1.35-10L86,140.57v10.17a160.11,160.11,0,0,0,25.44.55c4-.23,7.25-5.67,3.6-8.68a87.72,87.72,0,0,0-19.06-12.16l1,8a98.67,98.67,0,0,0,11.64-14.68c2.73-4.19-2.75-9.8-7-7Q90,124.69,79.13,133.66c-3.42,2.83-.59,8.85,3.6,8.69a138.91,138.91,0,0,0,24.64-3.14l-2.7-9.81q1.44.82,1.41-1.41l.78-1.34a44.91,44.91,0,0,1,3.57-5.18,67.62,67.62,0,0,1,7.85-8.38c2.27-2.08,1.88-6.61-1-8a65.42,65.42,0,0,0-16.36-5.38l2.25,8.51,20.23-15.88c3.37-2.64.63-9.12-3.6-8.69L88.65,86.88l2.57,9.48c9.28-6.29,18.53-12.7,26.31-20.85A5.15,5.15,0,0,0,115.28,67a301.11,301.11,0,0,0-33.83-7.86V69c26.11-7.65,53.63-3.57,80.3-7.12,5-.67,7.64-9.11,1.35-10-23-3.23-46-6.5-69.25-7S47.56,45.9,24.5,43.42a5.07,5.07,0,0,0-4.91,3.74c-2.33,14.69-5.54,29.55-6.5,44.42-.95,14.63,1.45,29.68,2.66,44.26.38,4.52,7.14,7.57,9.48,2.57,6.53-14,1.3-29.33-.74-43.76a346.68,346.68,0,0,1-3.25-51.31c.05-6.55-10.12-6.55-10.18,0Z" transform="translate(-8.6 -27.26)"/><path class="cls-1" d="M103.49,157.25l42.33,6.52,1.35-10-45.7-4.25c-5.65-.52-7,9.09-1.35,10l55.51,8.86,13.64,2.18c3.46.55,7.23,1.55,10.29-.8,2.71-2.07,3.3-6,4.24-9.07l4.18-13.6-10-1.36a30.4,30.4,0,0,1-3.83,12l9.3,1.21c-1-4.71-2.64-11.46,2.51-14.26l-7.48-3,1.07,3.35a5.16,5.16,0,0,0,8.51,2.25c2.52-2.36,3.07-5.31,3-8.65-.09-5.11-.74-10.28-1.24-15.37q-1.41-14.58-3.7-29.07c-1.52-9.69-3.71-19.25-5.25-28.93a72.6,72.6,0,0,1-.87-7.78c0-.73.37-7.15.09-7.31q-3.66.24-1.26.6c.82.14,1.65.26,2.47.36a10.24,10.24,0,0,0,4.57-1.15l-7-1.82,1.51,2.51c2.2,3.65,8.24,3.12,9.3-1.22l.79-3.19-10-1.35q-1,20.45-.29,40.92c.25,6.5.65,13,1.16,19.46.46,6,1.28,12.5-1.43,18.11-2.82,5.88,5.95,11.05,8.79,5.14,5.76-12,2.42-26.09,1.83-38.81-.7-14.94-.62-29.89.12-44.82.28-5.74-8.63-6.91-10-1.35l-.78,3.19,9.3-1.22-1.51-2.51c-1.54-2.56-4.41-2.94-7-1.83,1.77-.77-2-.79-2.8-.8a7.62,7.62,0,0,0-4.44,1.3c-3.35,2.33-3.52,6.58-3.71,10.3-.49,9.69,1.88,19.32,3.7,28.76,2,10.28,3.64,20.62,4.9,31q.93,7.65,1.61,15.33.35,3.84.62,7.69c.06.78.88,4.68.23,5.29l8.5,2.24-1.06-3.34a5.16,5.16,0,0,0-7.48-3c-9.71,5.26-9.17,16.37-7.19,25.75.91,4.31,7.25,4.92,9.3,1.22a43.08,43.08,0,0,0,5.23-17.09c.58-5.89-8.38-6.63-10-1.35l-3.06,10c-.83,2.7-1.32,6.59-3,8.84l3-2.34c-2.42.82-6.47-.65-9-1.05l-8.77-1.4-18.5-2.95-36-5.75-1.35,10,45.7,4.25c5.65.52,7-9.12,1.35-10l-42.32-6.51c-6.41-1-9.17,8.82-2.71,9.81Z" transform="translate(-8.6 -27.26)"/><path class="cls-1" d="M184,135.47a666,666,0,0,1-13-86.94c-.21-2.61-2.16-5.28-5.09-5.09-13.2.83-26.38-.43-39.59-.35-10.7.06-24.08.21-33.3,6.45-3.24,2.18-7.19,6.1-7,10.36.29,4.93,4.72,6.89,9,7.28,13.78,1.25,27.92.89,41.73.51l-4.91-6.44c-.64,1.78-4.08,3.16-5.53,4.08L120.56,69l-12.34,7.83c-5.59,3.55-.73,11.61,5.13,8.79a49.42,49.42,0,0,1,21.74-4.81l-3.59-8.69q-11.84,13.1-24,25.84c-2.93,3.06-.95,8.87,3.6,8.69l15-.61-4.4-7.66c-7.24,12.93-21.47,19.7-27.12,33.9-1.15,2.88,1.82,6.78,4.91,6.44l25.64-2.81-3.6-8.69a127,127,0,0,1-16.05,13.69c-4.44,3.16-2,11.07,3.92,9.3a89.76,89.76,0,0,1,26.76-3.83l-3.6-8.69q-4,4.15-8.28,8.13c-3.42,3.22-.57,8.38,3.6,8.68,12.89.94,25.92,2.54,38.83,2.82,11.89.27,8.86-16.54,8.1-24.46-1.15-12.19-3.94-24.14-6.55-36.08L160,58.86a5.14,5.14,0,0,0-6.26-3.55c-8.34,2.44-16.78,3.43-25.21,5.32-5.55,1.25-11.16,3.77-13.93,9-3.43,6.51-.53,15.12.52,21.91l4.38,28.34c.75,4.87,9,4.86,9.81,0l7-44.3h-9.81q5.4,17.76,11.71,35.21c2,5.53,9.43,4.4,10-1.35a220.86,220.86,0,0,0,.21-41.14H138.19A290.32,290.32,0,0,0,145.54,108c1.26,4.83,8.57,4.85,9.82,0a91.7,91.7,0,0,0,1.16-40.7c-1.11-5.72-10-4.27-10,1.36a262.41,262.41,0,0,0,6.2,56.69l9.81-2.71a109.05,109.05,0,0,0-10.21-26.67c-2.46-4.54-9.43-2.34-9.49,2.57l-.48,41.07,9.48-2.57L141,114.65c-1.94-4-8.25-2.82-9.3,1.22a177.85,177.85,0,0,0-4.93,28.25H137l-1.07-44.88c-.11-4.66-7.31-7.44-9.48-2.57l-18.26,40.82c-2.14,4.79,4,11.06,8,6.17A142.14,142.14,0,0,1,139,121.15l-8.69-3.6-3.51,27.72c-.62,4.89,5.73,6,8.69,3.6l20.17-16.42-8.68-3.6-1.72,18.64c-.48,5.13,7.16,6.8,9.48,2.57q5.69-10.34,10.67-21l-9.31-1.21a98.85,98.85,0,0,1,1.53,17.85l10-1.35L159.83,109c-1.27-5.79-9.75-4.19-10,1.36a256.79,256.79,0,0,0,.81,35.3c.4,4.35.12,10,3.24,13.41a8.69,8.69,0,0,0,4.56,2.62,11.36,11.36,0,0,0,2.46.32c2.54,0,1.25.58.72-.61l5.75-7.48c-18.36-7.46-38.35-8.13-57.91-8.58l2.57,9.49a106,106,0,0,1,32.66-9c3-.33,6.11-3,4.9-6.44-2.57-7.31-9.69-8-16.41-9.17l-27-4.78,2.25,8.5A164.61,164.61,0,0,1,135,115.06q3.39-1.94,6.88-3.71c1-.52,2.06-1,3.11-1.54l1.56-.75q2.72-.39.79-1.39c-.93-.94-1-.9-.31.11l.94,1.56,2.34,3.89L155,121c2.9,4.82,11.12,1.72,9.3-3.92a240.84,240.84,0,0,1-9.22-40c-.49-3.44-4.9-4.38-7.48-3a164.93,164.93,0,0,1-15,6.91l6.44,4.9a202.49,202.49,0,0,1-.77-24l-9.48,2.57a96.7,96.7,0,0,1,7.8,15.14c2.41,6,12.26,3.38,9.81-2.71a111.45,111.45,0,0,0-8.82-17.57,5.13,5.13,0,0,0-9.48,2.57,202.49,202.49,0,0,0,.76,24c.27,2.93,3.1,6.25,6.44,4.91a191,191,0,0,0,17.42-7.93l-7.48-3a241.1,241.1,0,0,0,9.23,40l9.3-3.92-5.63-9.35c-1.51-2.52-2.89-5.68-5.31-7.46-5.06-3.73-12.31,1.52-16.88,3.88a176.11,176.11,0,0,0-34.68,23.72c-2.75,2.39-1.44,7.85,2.25,8.5l19.27,3.42,8.67,1.54c.81.14,7.94.75,8.34,1.88l4.91-6.44A121.55,121.55,0,0,0,106.9,146c-4.83,2.21-2.11,9.37,2.57,9.48,18.75.43,37.59,1.06,55.2,8.22,4.63,1.87,7.31-4,5.75-7.48-1.32-3-4.23-4-7.26-4.3a7.61,7.61,0,0,1-2.25-.13c1.28.71.44-.31.4-1.42-.09-2.84-.59-5.72-.81-8.55a256.7,256.7,0,0,1-.48-31.5l-10,1.35,7.8,35.38c1.25,5.68,10,4.32,10-1.35a114.38,114.38,0,0,0-1.89-20.56c-.76-4.17-7.5-5.09-9.3-1.22q-5,10.69-10.67,21l9.48,2.57,1.72-18.64c.45-4.86-5.64-6.07-8.68-3.6l-20.18,16.43,8.69,3.59,3.51-27.72c.62-4.94-5.72-5.93-8.69-3.6A142.55,142.55,0,0,0,109,136.46l8,6.17,18.25-40.82-9.48-2.57,1.07,44.88c.16,6.65,9.57,6.42,10.18,0a161.7,161.7,0,0,1,4.56-25.55l-9.3,1.22,10.8,22.35c2.29,4.72,9.43,2.21,9.49-2.56L153,98.51l-9.48,2.57a98,98,0,0,1,9.19,24.24c1.51,6.38,11.22,3.67,9.81-2.71a249.36,249.36,0,0,1-5.84-54l-10,1.35a79.61,79.61,0,0,1-1.17,35.28h9.82a272.71,272.71,0,0,1-7-36.94c-.74-6.38-10.76-6.6-10.17,0a222.59,222.59,0,0,1-.21,41.14l10-1.35q-6.3-17.46-11.71-35.21c-1.34-4.41-9-5.26-9.81,0l-7,44.3h9.81L126,95.47l-1.61-10.39c-.46-3-2-7.43-.88-10.39,1.5-3.82,8.15-4.39,11.54-4.93a168.65,168.65,0,0,0,21.43-4.64l-6.26-3.55q4.77,21.79,9.53,43.59c1.54,7.06,3.09,14.12,4.16,21.26a114.93,114.93,0,0,1,1.19,12.28c.1,2.32,1.14,8.71-.18,10.76l3-2.34c-2,.76-5.89-.33-8.16-.49l-10.95-.8-20.91-1.51,3.6,8.68q4.23-4,8.28-8.12a5.15,5.15,0,0,0-3.6-8.69,99.36,99.36,0,0,0-29.47,4.2l3.92,9.3a142.94,142.94,0,0,0,18.12-15.28c2.86-2.87,1-9.19-3.6-8.69L99.5,128.53l4.9,6.45c5.09-12.78,19.4-19.52,26.1-31.47,1.82-3.24-.44-7.82-4.39-7.66l-15,.61,3.6,8.69q12.2-12.75,24-25.84c2.91-3.21,1-8.68-3.6-8.69a61,61,0,0,0-26.87,6.2l5.13,8.79,17.29-11c4.64-2.94,9.08-5.3,11-10.69,1.12-3.09-1.79-6.52-4.91-6.44q-14.91.42-29.81,0-4-.12-8-.3L95,57c.11,3.76.77,4.54,2,2.32,1.7-.75,3.08-2.3,5-3A31.72,31.72,0,0,1,106.85,55c19.3-4.11,39.49-.12,59-1.35l-5.09-5.09a686.74,686.74,0,0,0,13.38,89.65c1.39,6.39,11.2,3.69,9.81-2.71Z" transform="translate(-8.6 -27.26)"/><path class="cls-1" d="M20.5,45.12l13.25-4.45c6.17-2.08,3.52-11.91-2.71-9.81L17.8,35.31c-6.18,2.08-3.53,11.91,2.7,9.81Z" transform="translate(-8.6 -27.26)"/><path class="cls-1" d="M31.06,38.27l134.27,11c6.52.54,6.49-9.64,0-10.17l-134.27-11c-6.53-.53-6.5,9.65,0,10.18Z" transform="translate(-8.6 -27.26)"/><path class="cls-1" d="M115.46,45.14l31.31,1.13,15.66.56,7.83.28c1.5,0,6.09-.58,7.23.56l-.8-6.17c-3,6.3-9.29,9.76-13.65,15a34.88,34.88,0,0,0-7.71,19.08c-.7,6.5,9.49,6.46,10.18,0,1.45-13.53,14.62-17.75,20-28.95a5.27,5.27,0,0,0-.8-6.17c-3.68-3.68-8.57-3.33-13.45-3.51l-18.59-.66L115.46,35c-6.55-.23-6.54,9.95,0,10.18Z" transform="translate(-8.6 -27.26)"/><path class="cls-2" d="M71.7,30.6c.87-1.35,2.64-1.76,4.24-2a6.17,6.17,0,0,1,3.36.22,6.65,6.65,0,0,1,2.38,2.19" transform="translate(-8.6 -27.26)"/><path class="cls-3" d="M72.43,31c.87-1.28,2.79-1.5,4.19-1.62a4.37,4.37,0,0,1,2.6.35,7.27,7.27,0,0,1,1.86,1.89.86.86,0,0,0,1.2,0,.88.88,0,0,0,0-1.2,7.77,7.77,0,0,0-2.34-2.23,6.06,6.06,0,0,0-3.49-.49c-2,.21-4.25.63-5.48,2.44-.62.91.85,1.76,1.46.86Z" transform="translate(-8.6 -27.26)"/><path class="cls-2" d="M127,33.41c1.61-1.43,4-1.42,6.16-1.1,1.3.19,2.74.56,3.43,1.68l-.3,1.16" transform="translate(-8.6 -27.26)"/><path class="cls-3" d="M127.55,34a6,6,0,0,1,4.38-1c1.25.1,3.12.23,3.88,1.4l-.09-.65-.3,1.16a.85.85,0,0,0,1.64.45l.23-.89c0-.09.05-.18.07-.27a1.27,1.27,0,0,0-.41-1.1,5.26,5.26,0,0,0-3.21-1.56c-2.51-.45-5.34-.51-7.39,1.25-.83.71.38,1.91,1.2,1.2Z" transform="translate(-8.6 -27.26)"/><path class="cls-2" d="M66.69,42.41l5.4-.1-.92-.71,2.06,11.77,1.84-.51a60.43,60.43,0,0,0-3.59-7.8c-1.09-1.87-2.58-3.61-4.79-4.08a1,1,0,0,0-1.08,1.4L71,54.58c.43,1,1.7.34,1.79-.49.44-4.34-1.31-8.48-1.41-12.79a1,1,0,0,0-1.64-.68c-3,2.34-1.28,6.25.35,8.81l1.65-1-5.3-7.6a1,1,0,0,0-1.65,1c3.82,8,5.6,17,11.22,24.1.68.85,1.72-.12,1.6-.93q-.51-3.64-1.3-7.25c-.43-2-.8-4-2.23-5.48a1,1,0,0,0-1.6.42,8.81,8.81,0,0,0,.44,4.81,33.21,33.21,0,0,0,1.83,4.9l1.66-1A30.16,30.16,0,0,1,73,53.79l-1.84.5a50.61,50.61,0,0,0,4.38,9.3,50.74,50.74,0,0,0,3,4.32c.86,1.13,1.75,2.38,3.25,2.61a1,1,0,0,0,1.08-1.41A5.15,5.15,0,0,0,81,67.2c-.85-.53-2.23-.51-2.87-1.25a5.08,5.08,0,0,1-.72-2.84,6.42,6.42,0,0,0-.85-2.9l-1.65,1a82.55,82.55,0,0,1,4.93,7.62,1,1,0,0,0,1.66-1l-2.8-5.25c-.69-1.29-1.3-2.7-2.66-3.4a1,1,0,0,0-1.31,1.3c1.34,3.05,3.83,5.32,5.67,8,1.6,2.38,3,4.88,5.82,6,1.15.44,1.65-1.41.51-1.85-2.58-1-3.8-3.93-5.34-6-1.73-2.33-3.82-4.4-5-7.09l-1.31,1.31c1.22.63,1.8,2.41,2.41,3.56l2.35,4.41,1.66-1a81.17,81.17,0,0,0-4.94-7.61c-.71-1-2.31-.11-1.65,1,1.07,1.73.37,4,1.54,5.72a3.44,3.44,0,0,0,1.91,1.37c1.21.38,2.1.64,2.76,1.82l1.08-1.41c-1.41-.22-2.39-2.07-3.15-3.13s-1.63-2.41-2.36-3.67A48.16,48.16,0,0,1,73,53.79c-.41-1.15-2.19-.69-1.84.5a31.71,31.71,0,0,0,3.61,8.11,1,1,0,0,0,1.66-1,29.79,29.79,0,0,1-1.52-4c-.38-1.31-1-2.87-.56-4.22l-1.6.43c1.33,1.38,1.56,3.76,1.93,5.56.45,2.1.81,4.2,1.11,6.32l1.6-.93c-5.48-6.91-7.2-15.89-10.93-23.71l-1.65,1,5.3,7.6c.7,1,2.32.09,1.65-1-1.18-1.86-2.9-4.74-.64-6.49l-1.64-.68c.11,4.31,1.86,8.46,1.41,12.79l1.79-.48L67.27,41.42l-1.09,1.4c2,.43,3.1,2.18,4,3.85a68.47,68.47,0,0,1,3,6.7,1,1,0,0,0,1.84-.51L73,41.1a1,1,0,0,0-.93-.71l-5.4.11a1,1,0,0,0,0,1.91Z" transform="translate(-8.6 -27.26)"/><path class="cls-2" d="M102.35,77.55a12.35,12.35,0,0,0,6.09-5.36,1,1,0,0,0-1.66-1c-1.32,2.11-2.9,4.66-5.63,5l.26,1.88c6.53-2,10.67-7.65,13.61-13.51.55-1.09-1-2.05-1.65-1a31.35,31.35,0,0,1-6.57,8.19l1.5,1.16c2-2.81,4.12-5.6,6.15-8.42a27.76,27.76,0,0,0,4.35-7.93L117,56.08a16.44,16.44,0,0,1-4.49,7.28l1.5,1.16c2.27-4.22,4.54-8.44,6.74-12.7.55-1.08,1.11-2.17,1.65-3.26a8.46,8.46,0,0,1,1.41-2.44c.87-.79,2.19-.46,3.25-.36l3.92.36L130,44.91c-.37,1.36-1.66,2.59-2.5,3.69l-2.71,3.57-5.73,7.52c-1.87,2.47-3.71,5-5.63,7.39a17.24,17.24,0,0,1-2.66,2.74,11.28,11.28,0,0,0-2.57,2.59l1.65,1A65.21,65.21,0,0,1,115,66.09c1.83-2.23,3.91-4.24,5.68-6.51a39.79,39.79,0,0,0,4.21-7.44,12.71,12.71,0,0,0,1.53-3.41c.14-1.13-1-2.26-1.57-3.14a1,1,0,0,0-1.65,0c-2.63,4.49-3.85,9.76-7.07,13.9l1.5,1.16,4.83-8.4a39.68,39.68,0,0,1,2.28-4c.83-1.1,2.52-.45,3.75-.75l-1.08-1.4A26.4,26.4,0,0,1,123,52.2l-5.32,6.14,1.6.93c2-5.44,6.44-9.39,10.68-13.1.79-.69-.08-1.74-.93-1.6a19.19,19.19,0,0,1-5.35.15c-1.22-.13-1.21,1.79,0,1.92a20.93,20.93,0,0,0,5.86-.22l-.94-1.6c-4.52,4-9.08,8.15-11.17,14a1,1,0,0,0,1.6.93l5.64-6.51a26.83,26.83,0,0,0,4.41-6.08,1,1,0,0,0-1.09-1.4c-1.28.3-2.61-.28-3.82.46s-1.92,2.64-2.62,3.85L116,59.68c-.52.91.82,2,1.5,1.16,3.34-4.3,4.65-9.63,7.37-14.28h-1.65a10.53,10.53,0,0,1,1.1,1.65c.23.55,0,.78-.28,1.35-.59,1.22-1.17,2.45-1.77,3.67A29.79,29.79,0,0,1,117.86,60a88.94,88.94,0,0,0-9.65,12.39c-.65,1,1,2,1.65,1a12.72,12.72,0,0,1,2.72-2.56,19.79,19.79,0,0,0,2.64-2.92c2-2.53,3.87-5.08,5.81-7.63l5.72-7.52L129.62,49a11.07,11.07,0,0,0,2.23-3.56,1,1,0,0,0-.92-1.21l-4.16-.39a6.49,6.49,0,0,0-3.22.17c-2,.84-2.74,3.39-3.62,5.13-2.46,4.85-5,9.64-7.62,14.44a1,1,0,0,0,1.5,1.16,18.47,18.47,0,0,0,5-8.13,1,1,0,0,0-1.85-.51,27.62,27.62,0,0,1-4.4,7.83q-2.94,4-5.9,8.06c-.67.92.74,1.85,1.51,1.16A32.91,32.91,0,0,0,115,64.56l-1.65-1C110.66,69,107,74.36,100.9,76.22c-1,.3-.87,2,.25,1.88,3.52-.38,5.54-3.11,7.29-5.91l-1.66-1a10.23,10.23,0,0,1-4.94,4.47c-1.12.47-.63,2.32.51,1.85Z" transform="translate(-8.6 -27.26)"/><path class="cls-2" d="M85.41,36.65a5.77,5.77,0,0,0-2.07,2.26,1,1,0,0,0,.83,1.44,56.55,56.55,0,0,1,11,1.68,1,1,0,0,0,.93-1.6c-3.05-3.66-8.08-3.43-12.32-2.5L85,39.11c.38-1,2.71-.56,3.46-.5A8.42,8.42,0,0,1,93,40c2.39,1.81,3.22,4.9,4,7.65l1.75-.74a12.18,12.18,0,0,0-1.63-2.33,11.68,11.68,0,0,0-1-1l-.53-.47c-.24-.73-.08-1,.48-.74a1,1,0,0,0,1.21-.92c-.61-4.56-6.9-5.56-10.57-4.87a1,1,0,0,0,0,1.85c2.32.59,4.78.65,7,1.44,2.83,1,4,3.49,5,6.08,1.79,4.32,4.43,9.82,10,9.5L107.94,54c-1.77,2.47-5,0-6.45-1.48a32.82,32.82,0,0,1-5-6.91L95.16,47c3.52,1.85,5.17,5.79,7.92,8.5.9.89,2.08-.41,1.35-1.36A38.7,38.7,0,0,1,98.82,44l-1.75.74c1.41,2.24,2.82,4.47,4.31,6.65,1.15,1.68,2.29,3.55,4.37,4.12a1,1,0,0,0,1.08-1.4,61.54,61.54,0,0,0-5.68-7.74c-.8-.93-2.15.43-1.35,1.36a57.85,57.85,0,0,1,5.38,7.34l1.08-1.4c-1.88-.52-3-2.9-4-4.4-1.2-1.81-2.36-3.65-3.52-5.49-.55-.88-2.15-.33-1.75.73a41.54,41.54,0,0,0,6.1,10.92l1.35-1.36c-2.88-2.84-4.59-6.84-8.31-8.8a1,1,0,0,0-1.31,1.31,28.15,28.15,0,0,0,7,8.86c2.36,1.78,5.84,2.19,7.74-.47a1,1,0,0,0-.83-1.44c-6,.35-7.39-7.31-9.63-11.35a8.68,8.68,0,0,0-4.91-4.15c-2.27-.79-4.72-.86-7-1.45v1.85a9.52,9.52,0,0,1,4.71.27c1.26.4,3.23,1.25,3.44,2.75l1.21-.92a2.33,2.33,0,0,0-3.11,2.49,3.54,3.54,0,0,0,1.45,2.05,10.18,10.18,0,0,1,2.17,2.8,1,1,0,0,0,1.75-.74c-1-3.69-2.41-7.87-6.22-9.56a14.35,14.35,0,0,0-5.88-1c-1.54,0-3,.46-3.54,2-.28.72.52,1.32,1.17,1.17,3.61-.79,7.85-1.11,10.46,2l.93-1.6a59.47,59.47,0,0,0-11.56-1.74L85,39.88a3.75,3.75,0,0,1,1.37-1.58c1-.67.07-2.33-1-1.65Z" transform="translate(-8.6 -27.26)"/><path class="cls-3" d="M14.7,146.07,78.47,156.3l64.41,10.35,35.68,5.72c.67.11,1-.92.28-1l-63.76-10.23L50.67,150.76,15,145c-.67-.11-1,.92-.29,1Z" transform="translate(-8.6 -27.26)"/><path class="cls-3" d="M15.54,142.64,15,132.1l-1.26-25.31L12.23,76.16,10.91,49.68l-.43-8.76-.14-2.71a5.15,5.15,0,0,0-.07-1.42,1.21,1.21,0,0,1,0-.19l-.53.54c3.15,0,6.2,0,9.33.23l11.78.77,18,1.16L71,40.74l24.52,1.6,25,1.62,23.27,1.51,19.73,1.28,14.22.93c2.24.14,4.54.46,6.79.44l.29,0a.54.54,0,0,0,.27-1l-11.44-5.5-.13,1,17.6-2.86-.67-.52V142.32c0,.1-.05.49,0,.18a30.66,30.66,0,0,1-1.22,3.57L186.52,154l-5.18,15.08-.32.9c-.22.66.81.94,1,.29l9.15-26.6a10.21,10.21,0,0,0,.32-3.54V46c0-2.15.13-4.35,0-6.49v-.29a.53.53,0,0,0-.67-.51l-17.6,2.86a.53.53,0,0,0-.13,1l11.44,5.5.27-1-4.62-.3L167.59,46,149,44.74l-22.59-1.47-24.67-1.6L76.85,40.05l-23-1.49L34.72,37.32l-13.44-.87c-1.91-.13-3.84-.31-5.76-.38s-3.86,0-5.79,0a.54.54,0,0,0-.54.53l.53,10.54L11,72.45l1.52,30.62,1.32,26.49.44,8.76a37.82,37.82,0,0,0,.2,4.13,1.21,1.21,0,0,1,0,.19c0,.68,1.11.69,1.07,0Z" transform="translate(-8.6 -27.26)"/><path class="cls-3" d="M189.9,38.27l-16.25-1.11-39-2.65L88,31.33,47.55,28.58c-6.38-.43-12.77-1-19.16-1.3-.65,0-1.3,0-1.94,0a.54.54,0,0,0,0,1.07c5.78,0,11.61.67,17.38,1.06L82.46,32l46.72,3.18L169.88,38l13.36.91c2.1.15,4.28.47,6.39.44l.27,0c.69,0,.68-1,0-1.07Z" transform="translate(-8.6 -27.26)"/><path class="cls-3" d="M173.31,43v2.2a.54.54,0,0,0,.53.54.56.56,0,0,0,.54-.54V43a.54.54,0,0,0-1.07,0Z" transform="translate(-8.6 -27.26)"/><path class="cls-3" d="M183.21,48.7c0,4.63-.24,9.25-.41,13.88l-1.05,28.26-1.28,34.49-1.11,30-.37,9.9a37.56,37.56,0,0,0-.18,4.74,1.33,1.33,0,0,1,0,.2c0,.68,1,.68,1.07,0l.44-11.95,1.07-28.76,1.28-34.52,1.09-29.53c.17-4.58.41-9.16.51-13.74,0-1,0-2,0-2.94a.54.54,0,0,0-1.07,0Z" transform="translate(-8.6 -27.26)"/><path class="cls-4" d="M136,92.46c-.05,0-.07-.1-.1-.15h0s0,.12.1.15" transform="translate(-8.6 -27.26)"/><path class="cls-4" d="M135.93,92.31h0" transform="translate(-8.6 -27.26)"/><path class="cls-2" d="M77,102.36l-.64,0a2.72,2.72,0,0,0-2.21.84,20.72,20.72,0,0,1-6,4.09,7.41,7.41,0,0,1-6.08.3,5.42,5.42,0,0,1-3.16-7.26,34.21,34.21,0,0,1,2-4.12c0-.11.17-.18.26-.27l1.41,2,.14-.09a12.39,12.39,0,0,1-1.9-5.55,10.58,10.58,0,0,1,1-6.17,3.79,3.79,0,0,1,4.47-2,11,11,0,0,1,5.9,3.4A13.45,13.45,0,0,0,77.54,91a69.41,69.41,0,0,0,10.14,3c.1-.45.19-.84.25-1.15a67.69,67.69,0,0,1-8.8-2.44c-2.46-.86-4.84-1.85-6.55-4a3.46,3.46,0,0,0-.57-.51,12.18,12.18,0,0,0-5.94-2.83,4.7,4.7,0,0,0-5.38,3.14A11.74,11.74,0,0,0,60.85,95a.79.79,0,0,1-.11.87,19.44,19.44,0,0,0-1.29,1.83,9.26,9.26,0,0,0-1.63,5.69A6.58,6.58,0,0,0,63.59,109a10.19,10.19,0,0,0,5.93-1.24,25,25,0,0,0,5.53-4,1.33,1.33,0,0,1,.82-.38c2.22,0,4.45,0,6.66.13l4,.26c0-.34,0-.71,0-1.11-3.14-.11-6.3-.15-9.45-.24" transform="translate(-8.6 -27.26)"/><path class="cls-2" d="M131.34,106.85a7.42,7.42,0,0,0-2.18-3.07.56.56,0,0,1,.08-.16,10.81,10.81,0,0,0,3.39-9.26A4.69,4.69,0,0,0,129.39,90a9.73,9.73,0,0,0-4.6-.45,27.54,27.54,0,0,0-8.43,2.71,19,19,0,0,1-3.48,1.23,41.34,41.34,0,0,1-9.66.94c-.65,0-1.29,0-1.93,0a10.93,10.93,0,0,1,.1,1.26c1.8,0,3.61,0,5.42-.09a33.74,33.74,0,0,0,8.12-1.3,34.08,34.08,0,0,0,3.49-1.59,20.32,20.32,0,0,1,7.43-2,9.06,9.06,0,0,1,2.54.24c2.13.52,3,1.67,3.15,3.92.33,4.23-1.41,7.52-4.59,10.17l-.28.25.09.14c.54-.34,1.09-.65,1.59-1a.58.58,0,0,1,.92.07c2,1.94,2.08,4.19,1.19,6.62a4.16,4.16,0,0,1-4.75,3,16.93,16.93,0,0,1-7.08-2.46c-2.41-1.41-4.65-3.1-7.06-4.5a17.6,17.6,0,0,0-4.37-1.75c-2.08-.53-4.19-1-6.32-1.33,0,.38-.08.74-.12,1a55.78,55.78,0,0,1,5.6,1.21,14.9,14.9,0,0,1,5.28,2.22,43.67,43.67,0,0,0,7.85,4.78,16.48,16.48,0,0,0,6.55,1.84,5.24,5.24,0,0,0,3.65-1.11,6.61,6.61,0,0,0,1.65-7.11" transform="translate(-8.6 -27.26)"/><path class="cls-2" d="M129,110.46a6.32,6.32,0,0,1-6,.62,4.22,4.22,0,0,0,6-.62" transform="translate(-8.6 -27.26)"/><path class="cls-2" d="M68,105.29A5.93,5.93,0,0,1,63,102.8,4,4,0,0,0,68,105.29" transform="translate(-8.6 -27.26)"/><path class="cls-2" d="M106.09,105.34a19.26,19.26,0,0,1,2.28.33l.56.13.56.14.56.15.55.17.55.18.55.19.27.11.27.11.52.25.51.28c.16.09.33.19.49.3s.32.21.48.33l.46.35,0,0c-.18-.06-.35-.14-.53-.22l-.53-.22-.52-.23-.52-.23-.52-.22-.26-.12-.26-.11-.52-.24-.53-.21-.53-.2-.54-.18-.54-.17-.55-.16c-.74-.2-1.48-.37-2.23-.51v0" transform="translate(-8.6 -27.26)"/><path class="cls-2" d="M80.17,102.67a21.9,21.9,0,0,0-2.28-.19l-.57,0H76.18l-.57,0-.57,0-.56.06-.28,0-.29,0-.56.06-.57,0-.56.06-.57.06-.58,0v0l.54-.2.56-.17.56-.14.57-.11.57-.08.29,0,.29,0,.58,0h1.16l.57,0,.58,0,.57,0c.77.09,1.53.21,2.28.37v0" transform="translate(-8.6 -27.26)"/><path class="cls-5" d="M88.38,92.19s-3.1,12.67-.84,13.36l12.93,1.08s2.57-12.76.78-13.18C101.25,93.45,89,91.58,88.38,92.19Z" transform="translate(-8.6 -27.26)"/><path class="cls-2" d="M68.34,87.3a7,7,0,0,0-.78-.38,5.74,5.74,0,0,0-.8-.26,3.81,3.81,0,0,0-.82-.09,2.62,2.62,0,0,0-.79.1,2.43,2.43,0,0,0-.38.13l-.18.09-.18.1a2.46,2.46,0,0,0-.34.22l-.32.27a8.36,8.36,0,0,0-.58.61c-.18.22-.36.46-.53.69a4.56,4.56,0,0,1,.86-1.55l.15-.16.17-.16a3.17,3.17,0,0,1,.36-.28,2.73,2.73,0,0,1,.85-.39,3.73,3.73,0,0,1,.46-.09,3.69,3.69,0,0,1,.47,0,3.44,3.44,0,0,1,.9.19,4,4,0,0,1,.8.4A3.32,3.32,0,0,1,68,87c.11.1.22.2.32.31" transform="translate(-8.6 -27.26)"/><path class="cls-2" d="M130.12,95.68a5.16,5.16,0,0,0-.33-.8,4.77,4.77,0,0,0-.42-.73,3.59,3.59,0,0,0-.54-.62,3.92,3.92,0,0,0-.32-.25,3.79,3.79,0,0,0-.34-.2l-.37-.16-.19-.06-.2,0a2.7,2.7,0,0,0-.41-.06h-.41a5.93,5.93,0,0,0-.84.06c-.29,0-.57.1-.86.16a4.3,4.3,0,0,1,1.68-.57l.22,0H127a3.55,3.55,0,0,1,.46,0,2.8,2.8,0,0,1,.89.28,3.26,3.26,0,0,1,.4.24,2.59,2.59,0,0,1,.35.31,3.31,3.31,0,0,1,.55.74,4,4,0,0,1,.33.83,3.43,3.43,0,0,1,.09.44,3.15,3.15,0,0,1,0,.44" transform="translate(-8.6 -27.26)"/><path class="cls-2" d="M108.52,94.91a19.1,19.1,0,0,1,2.23-.55l.57-.1.57-.09.58-.07.57,0,.58,0,.58,0h.58l.58,0,.57.07.57.09a5.78,5.78,0,0,1,.57.12l.56.16v0h-4.56l-.57,0-.57,0-.57,0-.56.06c-.76.09-1.51.22-2.26.38v0" transform="translate(-8.6 -27.26)"/><path class="cls-2" d="M79.71,91.5c-.7-.32-1.4-.6-2.12-.85l-.54-.18-.55-.17L76,90.14,75.4,90l-.55-.12-.56-.11-.28,0-.28,0-.56-.11-.55-.12-.56-.11-.57-.11-.56-.12v0l.58,0h.58l.58,0,.58.06.57.1.28.06.28.07.56.15.56.16.55.18.54.19.54.2.54.22a20.74,20.74,0,0,1,2.06,1l0,0" transform="translate(-8.6 -27.26)"/><path class="cls-2" d="M87.78,101.64a3.66,3.66,0,0,1,.52-.59c.19-.17.39-.34.59-.49a7.31,7.31,0,0,1,.66-.41,3.31,3.31,0,0,1,.72-.3,3.66,3.66,0,0,1-.52.59,6.66,6.66,0,0,1-.59.49,7.31,7.31,0,0,1-.66.41,3.31,3.31,0,0,1-.72.3" transform="translate(-8.6 -27.26)"/><path class="cls-2" d="M88.74,103.47a12.82,12.82,0,0,1,1.33-1.22,15.56,15.56,0,0,1,3.09-1.88,12.79,12.79,0,0,1,1.7-.62c-.51.33-1,.63-1.54.94l-1.52.91c-.51.31-1,.62-1.52.94s-1,.63-1.54.93" transform="translate(-8.6 -27.26)"/><path class="cls-2" d="M90.79,104.62a1.52,1.52,0,0,1,.38-.3,2.17,2.17,0,0,1,.41-.19A1.63,1.63,0,0,1,92,104a1.31,1.31,0,0,1,.48,0,1.24,1.24,0,0,1-.38.31,2.17,2.17,0,0,1-.41.19,2.15,2.15,0,0,1-.44.09,1.37,1.37,0,0,1-.49,0" transform="translate(-8.6 -27.26)"/><path class="cls-2" d="M126.69,95.71a1.52,1.52,0,0,1,.38-.3,2.17,2.17,0,0,1,.41-.19,2.11,2.11,0,0,1,.45-.1,1.59,1.59,0,0,1,.48,0,1.24,1.24,0,0,1-.38.31,2.17,2.17,0,0,1-.41.19,2.11,2.11,0,0,1-.45.09,1.59,1.59,0,0,1-.48,0" transform="translate(-8.6 -27.26)"/><path class="cls-2" d="M62.26,90.86a1.33,1.33,0,0,1,.37-.31,2,2,0,0,1,.42-.19,2.15,2.15,0,0,1,.44-.09,1.38,1.38,0,0,1,.49,0,1.73,1.73,0,0,1-.38.3,2.17,2.17,0,0,1-.41.19,1.8,1.8,0,0,1-.45.09,1.31,1.31,0,0,1-.48,0" transform="translate(-8.6 -27.26)"/><path class="cls-2" d="M127.61,97.5a1.65,1.65,0,0,1,.19-.45,2,2,0,0,1,.29-.35,1.64,1.64,0,0,1,.35-.29,1.27,1.27,0,0,1,.44-.2,1.46,1.46,0,0,1-.19.44,2,2,0,0,1-.28.36,1.93,1.93,0,0,1-.35.29,1.43,1.43,0,0,1-.45.2" transform="translate(-8.6 -27.26)"/><path class="cls-2" d="M120.38,110.3a1.63,1.63,0,0,1,.49,0,3.13,3.13,0,0,1,.44.1,2.17,2.17,0,0,1,.41.19,1.58,1.58,0,0,1,.37.32,1.57,1.57,0,0,1-.48,0,2.26,2.26,0,0,1-.45-.1,2.17,2.17,0,0,1-.41-.19,1.58,1.58,0,0,1-.37-.32" transform="translate(-8.6 -27.26)"/><path class="cls-2" d="M67.38,104.79a1.36,1.36,0,0,1,.38-.3,1.65,1.65,0,0,1,.41-.18,2.26,2.26,0,0,1,.45-.1,1.59,1.59,0,0,1,.48,0,1.33,1.33,0,0,1-.37.31,1.9,1.9,0,0,1-.42.18,1.63,1.63,0,0,1-.45.09,1.13,1.13,0,0,1-.48,0" transform="translate(-8.6 -27.26)"/><path class="cls-2" d="M102,100.43a6.53,6.53,0,0,1,1.08-.07c.35,0,.71,0,1.06,0a9.32,9.32,0,0,1,1.06.15,6.4,6.4,0,0,1,1,.28,6.54,6.54,0,0,1-1.08.08,9.42,9.42,0,0,1-1.06-.06,9.65,9.65,0,0,1-1.06-.15,6.4,6.4,0,0,1-1-.28" transform="translate(-8.6 -27.26)"/><path class="cls-2" d="M101.92,101.7a11.18,11.18,0,0,1,1.92.22,13.21,13.21,0,0,1,1.87.5,13.46,13.46,0,0,1,1.79.74,10.76,10.76,0,0,1,1.66,1c-.61-.22-1.2-.45-1.8-.68l-1.79-.64-1.81-.58c-.61-.19-1.22-.36-1.84-.56" transform="translate(-8.6 -27.26)"/><path class="cls-2" d="M86,98.7a6.6,6.6,0,0,1-1.08.07c-.36,0-.71,0-1.07,0s-.7-.09-1-.15a6.4,6.4,0,0,1-1-.28,6.51,6.51,0,0,1,1.07-.08,9.59,9.59,0,0,1,1.07.06,9.48,9.48,0,0,1,1,.15A6.8,6.8,0,0,1,86,98.7" transform="translate(-8.6 -27.26)"/><path class="cls-2" d="M85.83,100l-1.91.2c-.63.06-1.26.14-1.89.23s-1.25.18-1.88.28l-1.89.32a10.39,10.39,0,0,1,1.82-.66A15.08,15.08,0,0,1,82,99.93a13.91,13.91,0,0,1,1.93-.13,11.33,11.33,0,0,1,1.93.15" transform="translate(-8.6 -27.26)"/><path class="cls-2" d="M102,97.8a18.38,18.38,0,0,1,3.58-.84,8.35,8.35,0,0,1,1.87-.06,4,4,0,0,1,.48.07,3,3,0,0,1,.48.15,1.72,1.72,0,0,1,.45.29l.09.11.08.1a1.19,1.19,0,0,1,.13.25.72.72,0,0,1,.05.33.64.64,0,0,1-.13.32,1,1,0,0,1-.22.2,1.34,1.34,0,0,1-.24.12,3.72,3.72,0,0,1-1,.22c-.31,0-.62,0-.93.06s-.62,0-.93,0c-.62,0-1.23-.09-1.84-.17l-.91-.15c-.3-.06-.6-.12-.89-.2.61.07,1.21.11,1.82.14s1.22,0,1.83,0a15.39,15.39,0,0,0,1.8-.11l.43-.08.4-.13a.83.83,0,0,0,.16-.09.63.63,0,0,0,.12-.1.3.3,0,0,0,0-.1.35.35,0,0,0,0-.12.55.55,0,0,0-.08-.15l-.06-.08-.06-.07a1,1,0,0,0-.31-.2,2.81,2.81,0,0,0-.82-.2,6.64,6.64,0,0,0-.89,0c-.3,0-.6,0-.9,0-.61,0-1.21.11-1.81.19s-1.21.18-1.81.29" transform="translate(-8.6 -27.26)"/><path class="cls-2" d="M86.58,96c-.57-.22-1.14-.43-1.72-.62S83.7,95,83.12,94.8c-.29-.08-.59-.15-.88-.21a8.85,8.85,0,0,0-.88-.12,2.91,2.91,0,0,0-.84,0,1.11,1.11,0,0,0-.35.14l-.07,0-.08.07-.11.13a.41.41,0,0,0,0,.12.12.12,0,0,0,0,.1.77.77,0,0,0,.09.13.58.58,0,0,0,.15.11,1.58,1.58,0,0,0,.36.2l.41.17a14,14,0,0,0,1.75.45q.88.18,1.8.3c.6.09,1.2.16,1.81.22-.3,0-.61,0-.92,0l-.92,0c-.61,0-1.22-.09-1.83-.17l-.91-.16a9.36,9.36,0,0,1-.91-.24,3.66,3.66,0,0,1-.89-.39,1.57,1.57,0,0,1-.21-.17.76.76,0,0,1-.18-.24.65.65,0,0,1-.07-.34.71.71,0,0,1,.11-.31,1,1,0,0,1,.18-.22l.1-.09.11-.08a1.25,1.25,0,0,1,.5-.2,2.05,2.05,0,0,1,.49-.06,3.93,3.93,0,0,1,.49,0,8.58,8.58,0,0,1,1.82.41,17,17,0,0,1,1.72.67c.56.26,1.11.53,1.64.84" transform="translate(-8.6 -27.26)"/><path class="cls-2" d="M74.82,111l.15-1.56.78.08a.75.75,0,0,1,.29.09.72.72,0,0,1,.24.19,1.17,1.17,0,0,1,.14.27.8.8,0,0,1,0,.31.66.66,0,0,1-.09.29.73.73,0,0,1-.46.38.75.75,0,0,1-.3,0L75,111l-.16,0m-.68,1.69.51,0,.12-1.23.78.07a1.4,1.4,0,0,0,.5,0,1.26,1.26,0,0,0,.45-.25,1.44,1.44,0,0,0,.32-.38,1.32,1.32,0,0,0,.14-.49,1.2,1.2,0,0,0,0-.5,1.36,1.36,0,0,0-.24-.44,1.28,1.28,0,0,0-.39-.32,1.16,1.16,0,0,0-.49-.14l-1.28-.13Z" transform="translate(-8.6 -27.26)"/><polyline class="cls-2" points="69.77 81.99 69.41 85.81 71.57 86.02 71.62 85.51 69.96 85.35 70.07 84.2 71.31 84.32 71.36 83.82 70.12 83.7 70.23 82.55 71.89 82.71 71.93 82.2 69.77 81.99"/><polyline class="cls-2" points="75.61 82.56 73.07 82.32 73.02 82.82 74.03 82.92 73.72 86.21 74.22 86.26 74.54 82.97 75.56 83.06 75.61 82.56"/><polyline class="cls-2" points="78.61 82.85 78.25 86.65 78.75 86.7 78.91 85.05 80.6 85.21 80.44 86.86 80.95 86.91 81.32 83.11 80.81 83.06 80.65 84.71 78.96 84.55 79.12 82.9 78.61 82.85"/><path class="cls-2" d="M92,113.36l.38-.74c.13-.27.26-.51.39-.75.08.25.16.52.23.81s.16.55.24.79L92,113.36m.89-2.75-2,3.68.54.06.34-.6,1.62.15.22.65.54.06Z" transform="translate(-8.6 -27.26)"/><polyline class="cls-2" points="87.16 83.63 86.79 87.47 87.3 87.52 87.51 85.36 88.66 87.56 90.21 85.62 90 87.78 90.51 87.83 90.88 83.98 88.75 86.65 87.16 83.63"/><path class="cls-2" d="M101.22,113.54l.15-1.56.78.07a.7.7,0,0,1,.29.09.76.76,0,0,1,.24.2.87.87,0,0,1,.14.27.73.73,0,0,1,0,.3.66.66,0,0,1-.09.29.72.72,0,0,1-.19.24.91.91,0,0,1-.27.15.74.74,0,0,1-.3,0l-.62-.06h-.16m-.68,1.69.51,0,.12-1.23.78.07a1.19,1.19,0,0,0,.5,0,1.4,1.4,0,0,0,.45-.24,1.45,1.45,0,0,0,.32-.39,1.22,1.22,0,0,0,.14-.48,1.17,1.17,0,0,0,0-.5,1.4,1.4,0,0,0-.24-.45,1.45,1.45,0,0,0-.39-.32,1.27,1.27,0,0,0-.49-.14l-1.28-.12Z" transform="translate(-8.6 -27.26)"/><polyline class="cls-2" points="96.17 84.53 95.81 88.34 97.97 88.55 98.02 88.05 96.36 87.89 96.47 86.74 97.71 86.86 97.76 86.35 96.52 86.23 96.63 85.08 98.29 85.24 98.33 84.73 96.17 84.53"/><path class="cls-2" d="M109.29,114.21l-.4,0-.19,0-.16,0,.14-1.45.63.06a1.3,1.3,0,0,1,.34.08.65.65,0,0,1,.26.19h0a.91.91,0,0,1,.14.25.84.84,0,0,1,0,.28.76.76,0,0,1-.26.51,1.23,1.23,0,0,1-.24.14.78.78,0,0,1-.27,0h0m-1.43,1.72.51,0,.13-1.33.56,0,.74,1.41.63.06-.68-1.32-.09-.17.18-.06a.65.65,0,0,0,.25-.1.77.77,0,0,0,.21-.18,1.24,1.24,0,0,0,.2-.31,1.07,1.07,0,0,0,.1-.36v-.11a1.08,1.08,0,0,0,0-.45,1.28,1.28,0,0,0-.23-.4,1.42,1.42,0,0,0-.41-.32,1.56,1.56,0,0,0-.52-.15l-1.19-.11Z" transform="translate(-8.6 -27.26)"/><path class="cls-2" d="M113.27,111a1.27,1.27,0,0,0-.2-.36,1.4,1.4,0,0,0-.33-.27,1,1,0,0,0-.42-.12,1,1,0,0,0-.43,0,1,1,0,0,0-.37.2,1.18,1.18,0,0,0-.27.32,1,1,0,0,0-.13.42,1.06,1.06,0,0,0,0,.43,1,1,0,0,0,.2.36,1.18,1.18,0,0,0,.32.27,1.21,1.21,0,0,0,.42.13,1.09,1.09,0,0,0,.44-.05,1.11,1.11,0,0,0,.37-.2,1,1,0,0,0,.27-.32,1,1,0,0,0,.12-.41,1.08,1.08,0,0,0,0-.44m-1.14,1.19a.86.86,0,1,1,1-.78.87.87,0,0,1-1,.78" transform="translate(-8.6 -27.26)"/><path class="cls-2" d="M112.62,111.57a.52.52,0,0,0-.12-.19.33.33,0,0,0,.23-.29.29.29,0,0,0-.13-.28.69.69,0,0,0-.38-.14,2.28,2.28,0,0,0-.37,0h0l-.12,1.24.22,0,0-.53.21,0a.22.22,0,0,1,.19.14.83.83,0,0,1,.08.4v0l.22,0v0a2,2,0,0,0-.07-.41m-.43-.32-.19,0,0-.38h.16c.22,0,.32.09.31.22s-.12.19-.32.17" transform="translate(-8.6 -27.26)"/><path class="cls-3" d="M182.45,145.88a38.2,38.2,0,0,1,7.57-2,.54.54,0,0,0-.28-1,38.74,38.74,0,0,0-7.57,2c-.64.24-.36,1.28.28,1Z" transform="translate(-8.6 -27.26)"/><path class="cls-3" d="M9.26,36.2a150.62,150.62,0,0,1,19.4-3.86.55.55,0,0,0,.52-.39c.25-1.85-1.56-2.59-2.1-4.16-.22-.64-1.26-.37-1,.29a5,5,0,0,0,1,1.58c.46.55,1.24,1.21,1.14,2l.51-.4A151.52,151.52,0,0,0,9,35.17a.53.53,0,0,0,.28,1Z" transform="translate(-8.6 -27.26)"/><path class="cls-3" d="M28.13,31.81c.18,1.52-.15,3.06,0,4.58a.54.54,0,0,0,1.07,0c-.18-1.52.15-3.06,0-4.58a.57.57,0,0,0-.54-.54.54.54,0,0,0-.53.54Z" transform="translate(-8.6 -27.26)"/><path class="cls-3" d="M24.77,27.93c.18,1.52-.15,3.06,0,4.58a.56.56,0,0,0,.54.54.54.54,0,0,0,.53-.54c-.18-1.52.15-3.06,0-4.58a.56.56,0,0,0-.54-.53c-.26,0-.57.25-.53.53Z" transform="translate(-8.6 -27.26)"/><path class="cls-3" d="M63.82,40.37c1.35,3.76,2.68,7.51,4,11.27a93.34,93.34,0,0,0,3.71,9.44,25.91,25.91,0,0,0,5.67,8,42.08,42.08,0,0,0,8.5,5.63c3.14,1.7,6.33,3.45,9.85,4.18a14.22,14.22,0,0,0,9.15-1.08c5.75-2.73,9.87-8.3,13.85-13.07q8.39-10,16-20.62a.73.73,0,0,0-.54-1.13q-5.82-.3-11.66-.56a.72.72,0,0,0-.72.47c-1.67,4-3.55,7.93-5.53,11.78C112.76,61.14,109,68,103.85,73.25c-1.74,1.76-4,3.84-6.66,4a5.87,5.87,0,0,1-2.32-.58,29.75,29.75,0,0,1-11.13-8.11C77,60.79,74.57,50.44,74.42,40.4a.74.74,0,0,0-.66-.77c-1.29-.23-10.73-2.2-10,.58.23.9,1.65.63,1.41-.27.14.53-.39.18.23.26a11.38,11.38,0,0,0,1.16,0,28.73,28.73,0,0,1,3.06.27c1.35.17,2.69.37,4,.62L73,40.29c.14,9.52,2.21,19.2,7.91,27A32.1,32.1,0,0,0,93.34,77.55a14.3,14.3,0,0,0,2.75,1c2.19.49,4.54-.83,6.23-2.08a34.25,34.25,0,0,0,7-7.7,102.49,102.49,0,0,0,6.37-10.37A161.5,161.5,0,0,0,123,43.34l-.73.47q5.83.27,11.66.57l-.53-1.13Q127,52.1,120.15,60.54c-2.25,2.77-4.54,5.51-6.9,8.2a40.12,40.12,0,0,1-6.24,6,14.16,14.16,0,0,1-8.61,3c-3.76-.08-7.26-1.82-10.52-3.55A53.63,53.63,0,0,1,79.43,69a23,23,0,0,1-6-7.34,73.92,73.92,0,0,1-4.1-10L65.11,39.75C64.8,38.88,63.51,39.5,63.82,40.37Z" transform="translate(-8.6 -27.26)"/><path class="cls-2" d="M96.52,38.56a33.36,33.36,0,0,0,5.48,2.2l-.42-1.6s-.11.08,0,0a1.32,1.32,0,0,1-.2.12c-.13.07.12,0,0,0l-.18,0s-.23,0-.06,0h-.38c.11,0,0,0,0,0l-.15,0-.09,0a3.28,3.28,0,0,1-.31-.2c-.08-.05.06.06-.07,0l-.14-.12-.31-.29a6.91,6.91,0,0,0-1.44-1.09,8.44,8.44,0,0,0-1.9-.68,1,1,0,0,0-1.13.56,1,1,0,0,0,.4,1.19,6.13,6.13,0,0,0,2,.55l.94.08.45,0,.22,0h.11s0,0,0,0a4.8,4.8,0,0,1,.85.21l.24.13a1.06,1.06,0,0,1,.2.12c-.09-.06,0,0,0,0a2.06,2.06,0,0,1,.25.26c-.06-.08,0,0,0,0l.09.15c.09.15,0,0,0,.06a1,1,0,0,0,0,.17c0,.11,0-.12,0,0s0,.15,0,.23l.71-.93a10.33,10.33,0,0,1-2.49.26,1,1,0,0,0-1,1,1,1,0,0,0,1,1,13.79,13.79,0,0,0,3-.33,1,1,0,0,0,.7-.92,3.24,3.24,0,0,0-2.51-3.07,9.32,9.32,0,0,0-2.17-.31A5.07,5.07,0,0,1,96.5,37l-.74,1.75a5.29,5.29,0,0,1,1.77.67s.21.15.14.09l.12.1.36.32c.22.2.43.4.67.59a3.36,3.36,0,0,0,2,.82,3.05,3.05,0,0,0,2.09-.8,1,1,0,0,0-.42-1.6,29.61,29.61,0,0,1-5-2,1,1,0,0,0-1.31.34,1,1,0,0,0,.35,1.31Z" transform="translate(-8.6 -27.26)"/><path class="cls-2" d="M94.23,46.78l-1,5.07-.48,2.48a3.54,3.54,0,0,1-.21.79c0,.09-.11.18-.14.26s-.21.07,0,0l1,1c.3-2.73.67-5.74,2.86-7.65l-1.6-.42a53.34,53.34,0,0,1,1.82,6.18,1,1,0,0,0,1.75.23,32.09,32.09,0,0,0,1.28-3.1l-1.88-.25c-.13,2.16-.3,4.33-.52,6.48l1.21-.92-5.36-.82V58c1.4-.44,2-1.7,2.54-3l2-4.9-1.88-.25a30.82,30.82,0,0,1-.55,6.71,1,1,0,0,0,1.84.51,52.82,52.82,0,0,0,1.49-6.91H96.55a8.56,8.56,0,0,1-.13,2.94c-.08.46-.16.93-.25,1.39l-.14.8a2.19,2.19,0,0,1-.11.63l.34-.34c.2,0,.19-.07,0-.06l-.23,0a5.61,5.61,0,0,1-.59-.13,1,1,0,0,0-.51,1.85,3.15,3.15,0,0,0,2.34,0c.7-.46.68-1.59.81-2.33a14.77,14.77,0,0,0,.35-5.25c-.16-.9-1.71-.93-1.84,0a52.82,52.82,0,0,1-1.49,6.91l1.84.51a32.48,32.48,0,0,0,.62-7.22,1,1,0,0,0-1.88-.26L94,53.68c-.31.75-.65,2.16-1.53,2.43s-1,1.7,0,1.85l5.36.82A1,1,0,0,0,99,57.85c.22-2.15.4-4.32.52-6.48.07-1.14-1.53-1.23-1.88-.26s-.67,1.78-1.08,2.65l1.75.23a55,55,0,0,0-1.83-6.19,1,1,0,0,0-1.6-.43c-2.59,2.27-3.06,5.79-3.41,9a1,1,0,0,0,1,1c2-.22,2.16-2.37,2.47-4l1.19-6.1c.23-1.21-1.61-1.72-1.85-.51Z" transform="translate(-8.6 -27.26)"/><path class="cls-3" d="M93.42,45.2,89.94,57.07a.74.74,0,0,0,.4.93c1.3.49,2.62.92,4,1.28a25.66,25.66,0,0,0,4.09.88,1.26,1.26,0,0,0,1.24-.47A3.17,3.17,0,0,0,99.91,58l.18-4.24c0-.92-1.38-1.08-1.42-.15L98.52,57c0,.26,0,.52,0,.78a2.29,2.29,0,0,0,0,.9c0,.15,0,.18.17.1l-.43-.06-.76-.14a40.54,40.54,0,0,1-6.56-1.87l.4.93Q93,51.66,94.75,45.72c.27-.89-1.06-1.41-1.33-.52Z" transform="translate(-8.6 -27.26)"/><path class="cls-3" d="M95,37.09l3.1.64a29.39,29.39,0,0,1,3.07.65c1.39.48,1.69,2.1,1.5,3.4-.14.92,1.29,1,1.43.14.24-1.7-.25-3.74-1.86-4.63a12.55,12.55,0,0,0-3.38-.87l-3.7-.76a.72.72,0,0,0-.79.64.71.71,0,0,0,.63.79Z" transform="translate(-8.6 -27.26)"/><path class="cls-2" d="M92.93,41.49l.5.36.13.1c-.08-.07-.1-.08,0,0l.21.17c.3.25.6.5.88.77a15.83,15.83,0,0,1,1.58,1.7,1,1,0,0,0,1.36,0,1,1,0,0,0,0-1.35c-.07-.09-.06-.08,0,0l-.07-.09c0-.08-.11-.15-.16-.22l-.25-.38c-.18-.3-.35-.6-.5-.91a2.56,2.56,0,0,1-.11-.24s-.13-.25,0,0a3.61,3.61,0,0,1-.17-.46,9.25,9.25,0,0,1-.29-1L94.8,41l.25.09,0,0,.12.06a4.31,4.31,0,0,1,.47.26l.16.11.11.07c.09.07.07.06,0,0a1.61,1.61,0,0,1,.39.35c.12.11.22.23.32.34l0,0,.08.11.15.22c.08.13.16.27.23.41l.06.12C97,43,97,42.93,97,43s0,.33,0,0c0,.11,0,.07,0-.09,0,.09,0,.06,0-.09a.62.62,0,0,1,.37-.28c.14,0,.16,0,0,0l.12,0-.16,0-.31-.07a6.13,6.13,0,0,1-.61-.18l-.23-.08c-.1,0-.1,0,0,0l-.15-.06c-.89-.42-1.69-1-2.74-.76a1,1,0,0,0-.7.92,1,1,0,0,0,.7.93A2.13,2.13,0,0,0,95,42.91l.25-.15a.39.39,0,0,0,.11-.06c.09-.06-.21.06,0,0s.21,0,0,0,0,0,0,0-.24-.07-.09,0,.18.06,0,0,.06,0,.1.07-.17-.15-.08-.06l.1.09c.12.11.23.23.35.35a2.41,2.41,0,0,0,1.14.69A1,1,0,1,0,97.39,42a.53.53,0,0,0-.12,0c-.08,0,.2.11.07,0s-.24-.16-.11-.06-.06-.06-.1-.1L97,41.66a3,3,0,0,0-1.09-.77,1.89,1.89,0,0,0-1.52.17l-.46.27-.13.07c-.07.06.21,0,0,0l-.11,0c.16,0,.2,0,.13,0s0,0,.11,0v1.85s.13,0,0,0,0,0,.06,0-.08,0-.07,0l.11,0a1.21,1.21,0,0,1,.25.08l0,0a1.51,1.51,0,0,0,.18.09,10.64,10.64,0,0,0,1,.49,8.27,8.27,0,0,0,1.21.43,2.63,2.63,0,0,0,1.39.09,1.36,1.36,0,0,0,.93-1.26,2.22,2.22,0,0,0-.3-1.15,5.33,5.33,0,0,0-1.21-1.58,5.87,5.87,0,0,0-2.1-1.23,1,1,0,0,0-1.18,1.17,10.92,10.92,0,0,0,2.06,4.18l1.36-1.35a17.64,17.64,0,0,0-3.65-3.36,1,1,0,0,0-1.31.34,1,1,0,0,0,.34,1.31Z" transform="translate(-8.6 -27.26)"/><path class="cls-3" d="M85.33,38c3.77.14,6.11,3.31,7.83,6.3s3.34,5.77,5.27,8.53c1.69,2.41,3.42,4.91,6.6,5.26a6.67,6.67,0,0,0,6.46-3.39.73.73,0,0,0-.51-1.14c-7.7-.63-9.08-10.75-13.88-15.23-2.5-2.33-5.84-3.1-9.18-3.21-2.73-.08-6.1,1.36-5.64,4.64.12.92,1.54.68,1.42-.24-.27-1.93,1.76-2.86,3.38-2.95a17.38,17.38,0,0,1,4.76.51c3.3.77,5.53,3.26,7.21,6.06,2.85,4.77,5.36,11.32,11.79,11.86l-.5-1.14a5.24,5.24,0,0,1-7.53,1.93,13.11,13.11,0,0,1-3-3.5c-1-1.37-1.89-2.75-2.77-4.17-2.79-4.5-5.33-11.31-11.56-11.55-.92,0-1.08,1.4-.15,1.43Z" transform="translate(-8.6 -27.26)"/></svg>